<svg width="1168" height="170" viewBox="0 0 1168 170" fill="none" xmlns="http://www.w3.org/2000/svg">
<path d="M0.779286 48.482H5.68128V55.1665C5.68128 58.286 6.01551 60.477 6.68396 61.7397C7.35241 62.928 8.54078 63.5222 10.249 63.5222C13.2942 63.5222 14.8168 60.8112 14.8168 55.3893C14.8168 53.4583 14.5197 51.6014 13.9255 49.8189C13.4056 47.9621 12.4772 45.8453 11.1403 43.4686C10.5461 42.3545 9.80341 41.5004 8.91214 40.9062C8.02087 40.2377 7.1296 39.9406 6.23832 40.0149H5.68128C5.97837 39.4207 6.16405 38.9751 6.23832 38.678C6.3126 38.3066 6.34973 37.9724 6.34973 37.6753C6.34973 36.9326 5.94123 35.9299 5.12424 34.6673C4.23296 33.2561 3.49024 31.9192 2.89606 30.6566C2.30187 29.3939 1.8191 28.0199 1.44774 26.5344C1.15065 25.049 0.927831 23.415 0.779286 21.6324C0.63074 19.7756 0.556468 17.5846 0.556468 15.0593C0.556468 12.2369 0.705013 10.0459 1.0021 8.48617C1.37347 6.85217 2.00478 5.40385 2.89606 4.14121C3.63878 3.1014 4.56719 2.24726 5.68128 1.57881C6.86964 0.910352 8.09514 0.576125 9.35778 0.576125C10.249 0.576125 11.1032 0.761806 11.9202 1.13317C12.7372 1.43026 13.777 2.09871 15.0396 3.13853C15.8566 2.17299 16.5622 1.54167 17.1564 1.24458C17.8249 0.873216 18.5676 0.650397 19.3846 0.576125V30.6566H14.1484V22.1895C14.1484 19.6642 13.8513 17.8817 13.2571 16.8418C12.6629 15.7277 11.6231 15.1707 10.1376 15.1707C8.94928 15.1707 7.98373 15.6163 7.24101 16.5076C6.57255 17.3246 6.23832 18.4387 6.23832 19.8499C6.23832 21.8552 6.46114 23.7121 6.90678 25.4203C7.35241 27.0543 8.16941 29.0226 9.35778 31.325C10.3233 33.1818 11.1775 34.4073 11.9202 35.0015C12.6629 35.5957 13.7027 35.8928 15.0396 35.8928C14.594 36.6355 14.3712 37.304 14.3712 37.8981C14.3712 38.1952 14.3712 38.4552 14.3712 38.678C14.4455 38.8265 14.594 39.1236 14.8168 39.5693C15.0396 40.0149 15.3739 40.6462 15.8195 41.4632C16.3394 42.2802 17.045 43.3943 17.9363 44.8055C19.1246 46.8108 20.0159 49.1133 20.6101 51.7128C21.2043 54.3124 21.5014 57.3576 21.5014 60.8484C21.5014 66.7902 20.7958 70.9866 19.3846 73.4376C17.9734 75.8886 15.5595 77.1141 12.143 77.1141C10.6575 77.1141 9.39491 76.8913 8.3551 76.4456C7.38955 76 6.49828 75.2573 5.68128 74.2175C4.71574 75.3315 3.89874 76.0743 3.23028 76.4456C2.6361 76.817 1.8191 77.0398 0.779286 77.1141V48.482ZM46.8591 28.7626H41.2886V20.7412C41.2886 15.9134 39.8775 13.4996 37.0551 13.4996C35.6439 13.4996 34.567 14.1309 33.8242 15.3935C33.0815 16.6562 32.7101 18.4387 32.7101 20.7412V31.325C32.7101 32.4391 32.7473 33.3675 32.8215 34.1102C32.8958 34.7787 33.0444 35.3357 33.2672 35.7814C33.49 36.227 33.7871 36.6355 34.1585 37.0069C34.6041 37.304 35.1983 37.601 35.941 37.8981C34.6784 38.5666 33.8242 39.3093 33.3786 40.1263C32.933 40.869 32.7101 42.0203 32.7101 43.58V55.6122C32.7101 56.4292 32.7844 57.4318 32.933 58.6202C33.0815 59.7343 33.23 60.5513 33.3786 61.0712C33.6014 61.7397 34.047 62.3338 34.7155 62.8537C35.4582 63.2994 36.2381 63.5222 37.0551 63.5222C39.8775 63.5222 41.2886 61.4797 41.2886 57.3947V48.9276H46.8591V62.9652C46.8591 67.8671 46.0421 71.4694 44.4081 73.7718C42.8484 76 40.286 77.1141 36.7209 77.1141C35.0869 77.1141 33.5643 76.7799 32.1531 76.1114C30.8162 75.443 29.8135 74.5888 29.1451 73.549C28.4023 72.2864 27.8453 70.6152 27.4739 68.5356C27.1768 66.456 27.0283 63.6336 27.0283 60.0685V44.5827C27.0283 43.4686 26.9911 42.5773 26.9169 41.9089C26.8426 41.2404 26.7312 40.6834 26.5826 40.2377C26.4341 39.7178 26.1741 39.3093 25.8028 39.0122C25.4314 38.6409 24.9858 38.2695 24.4659 37.8981C25.5057 37.0811 26.1741 36.3013 26.4712 35.5585C26.8426 34.8158 27.0283 33.6275 27.0283 31.9935V13.4996C27.0283 9.41457 27.771 6.25798 29.2565 4.0298C30.8162 1.72735 32.9701 0.576125 35.7182 0.576125C36.8323 0.576125 37.7607 0.798944 38.5034 1.24458C39.3204 1.69022 40.2488 2.54435 41.2886 3.80699C42.1799 2.6929 42.9969 1.91303 43.7396 1.4674C44.5566 1.02176 45.5964 0.724673 46.8591 0.576125V28.7626ZM50.1578 0.910354C51.3462 1.0589 52.2375 1.28171 52.8316 1.57881C53.5001 1.8759 54.2057 2.39581 54.9484 3.13853C56.211 2.32153 57.3994 1.76449 58.5135 1.4674C59.6276 1.09604 61.0388 0.910354 62.747 0.910354C65.2723 0.910354 67.2777 1.35599 68.7631 2.24726C70.3229 3.06426 71.5112 4.43831 72.3282 6.3694C72.551 6.96357 72.7367 7.55775 72.8853 8.15194C73.1081 8.67184 73.2566 9.3403 73.3309 10.1573C73.4052 10.9743 73.4423 11.977 73.4423 13.1653C73.5166 14.2794 73.5537 15.6906 73.5537 17.3989C73.628 18.8101 73.7765 19.8127 73.9993 20.4069C74.2964 21.0011 74.9278 21.6324 75.8933 22.3009C75.0763 22.9693 74.5193 23.6378 74.2222 24.3062C73.9251 24.9004 73.7765 25.9031 73.7765 27.3143C73.8508 30.5823 73.5908 32.9219 72.9967 34.333C72.4768 35.7442 71.4369 36.784 69.8772 37.4525C72.6996 39.0865 74.1108 41.5746 74.1108 44.9169V61.6282H77.8987V76.6685H76.2275C75.1134 76.6685 74.0736 76.4828 73.1081 76.1114C72.1425 75.74 71.3627 75.2201 70.7685 74.5517C70.3229 74.0318 69.9515 73.549 69.6544 73.1034C69.4316 72.6577 69.2459 72.0635 69.0974 71.3208C68.9488 70.5781 68.8374 69.6126 68.7631 68.4242C68.7631 67.2358 68.7631 65.6761 68.7631 63.745V48.2592C68.7631 45.2883 68.3175 43.32 67.4262 42.3545C66.5349 41.3147 64.7895 40.7948 62.19 40.7948H59.2934V61.6282H63.0813V76.7799C61.6701 76.7799 60.556 76.6313 59.739 76.3342C58.922 76.0371 57.9936 75.4058 56.9538 74.4403C56.0625 75.2573 55.1341 75.8143 54.1686 76.1114C53.2773 76.4828 51.9404 76.7056 50.1578 76.7799V61.6282H53.9457V44.8055C53.9457 43.5429 53.7229 42.5402 53.2773 41.7974C52.9059 40.9804 52.2003 40.2006 51.1605 39.4579C52.2746 38.6409 53.0173 37.8239 53.3887 37.0069C53.7601 36.1156 53.9457 34.8158 53.9457 33.1075V15.3935H50.1578V0.910354ZM59.2934 34.333C61.2987 34.333 62.8585 34.2588 63.9725 34.1102C65.1609 33.8874 66.0522 33.4418 66.6464 32.7733C67.3148 32.1049 67.7233 31.1022 67.8719 29.7653C68.0204 28.4284 68.0947 26.6458 68.0947 24.4176C68.0947 21.4467 67.909 19.3671 67.5376 18.1787C67.1663 16.9904 66.4235 16.2105 65.3094 15.8392C65.0866 15.7649 64.8267 15.6906 64.5296 15.6163C64.3068 15.5421 64.0097 15.5049 63.6383 15.5049C63.267 15.4307 62.7099 15.3935 61.9672 15.3935C61.2987 15.3935 60.4075 15.3935 59.2934 15.3935V34.333ZM80.186 61.6282H83.9739V44.0256C83.9739 42.6144 83.7883 41.5746 83.4169 40.9062C83.1198 40.2377 82.4142 39.3836 81.3001 38.3438C82.4142 37.5268 83.1198 36.784 83.4169 36.1156C83.7883 35.3729 83.9739 34.1845 83.9739 32.5505V15.3935H80.186V0.910354C81.5229 0.910354 82.5628 1.0589 83.3055 1.35599C84.1225 1.57881 85.1252 2.09871 86.3135 2.91572C87.5762 2.17299 88.616 1.65308 89.433 1.35599C90.3242 1.0589 91.2155 0.910354 92.1068 0.910354C92.9981 0.910354 93.8893 1.0589 94.7806 1.35599C95.6719 1.65308 96.7488 2.17299 98.0115 2.91572C98.5314 2.54435 98.977 2.24726 99.3484 2.02444C99.794 1.72735 100.203 1.50453 100.574 1.35599C101.02 1.20744 101.465 1.09603 101.911 1.02176C102.431 0.94749 103.062 0.910354 103.805 0.910354V29.8767H99.4598V27.3143C99.4598 24.7147 99.3112 22.6351 99.0141 21.0754C98.7171 19.5157 98.1971 18.253 97.4544 17.2875C96.8602 16.4705 96.1546 15.9506 95.3376 15.7277C94.5949 15.5049 93.258 15.3935 91.3269 15.3935H89.433V35.3357H98.0115V42.1317H89.433V61.6282H91.1041C93.258 61.6282 94.7806 61.4797 95.6719 61.1826C96.6374 60.8112 97.4173 60.1057 98.0115 59.0658C98.977 57.5804 99.4598 55.2408 99.4598 52.0471V49.1504H103.805V76.7799C102.616 76.7056 101.651 76.5199 100.908 76.2228C100.165 75.9257 99.2741 75.3315 98.2343 74.4403C96.2289 76 94.2607 76.7799 92.3296 76.7799C91.2155 76.7799 90.1757 76.5942 89.2102 76.2228C88.3189 75.8515 87.3533 75.2573 86.3135 74.4403C85.1252 75.4058 84.1596 76 83.4169 76.2228C82.7484 76.5199 81.6715 76.7056 80.186 76.7799V61.6282ZM111.844 61.6282H114.852L112.847 45.9196C112.699 44.7312 112.587 43.8028 112.513 43.1344C112.439 42.4659 112.29 41.946 112.067 41.5746C111.919 41.2033 111.659 40.9062 111.287 40.6834C110.916 40.3863 110.396 40.052 109.728 39.6807C110.619 38.7894 111.213 38.0838 111.51 37.5639C111.807 37.044 111.956 36.3755 111.956 35.5585C111.956 35.41 111.956 35.1872 111.956 34.8901C111.956 34.593 111.919 34.2959 111.844 33.9988L109.728 15.3935H106.385V0.910354C108.019 1.0589 109.245 1.24458 110.062 1.4674C110.879 1.69022 111.807 2.21013 112.847 3.02712C114.184 2.21013 115.224 1.69022 115.967 1.4674C116.784 1.17031 117.675 0.984626 118.64 0.910354V15.3935H115.298L119.42 54.0524L124.099 15.3935H121.314V0.910354C122.8 0.984626 124.025 1.17031 124.991 1.4674C125.956 1.69022 126.996 2.21013 128.11 3.02712C129.076 2.43294 129.93 1.9873 130.673 1.69021C131.49 1.31885 132.455 1.0589 133.569 0.910354V15.3935H130.673L134.349 54.0524L139.697 15.3935H136.354V0.910354C138.063 0.910354 139.362 1.0589 140.254 1.35599C141.145 1.65308 142.111 2.21013 143.15 3.02712C144.339 2.21013 145.304 1.69022 146.047 1.4674C146.79 1.24458 147.718 1.0589 148.832 0.910354V15.3935H145.379L142.593 33.6646C142.519 34.036 142.445 34.4445 142.371 34.8901C142.371 35.2615 142.371 35.5585 142.371 35.7814C142.371 36.3755 142.519 36.9326 142.816 37.4525C143.113 37.8981 143.707 38.6409 144.599 39.6807C143.485 40.2749 142.668 40.9433 142.148 41.686C141.628 42.3545 141.294 43.2086 141.145 44.2484L138.471 61.6282H141.479V76.7799C140.142 76.6313 139.028 76.4085 138.137 76.1114C137.32 75.8886 136.28 75.3687 135.018 74.5517C133.606 75.443 132.455 76.0371 131.564 76.3342C130.673 76.6313 129.521 76.7799 128.11 76.7799V61.6282H129.67L126.996 37.7867L123.877 61.6282H125.882V76.7799C124.025 76.7056 122.614 76.5199 121.648 76.2228C120.683 75.9257 119.68 75.3687 118.64 74.5517C117.526 75.3687 116.524 75.8886 115.632 76.1114C114.815 76.4085 113.553 76.6313 111.844 76.7799V61.6282ZM175.546 61.6282H179.334V45.4739C179.334 43.9885 179.111 42.8744 178.665 42.1317C178.294 41.3147 177.477 40.5348 176.214 39.7921C177.403 38.9751 177.997 38.0838 177.997 37.1183C177.997 36.3755 177.811 35.5214 177.44 34.5559L171.535 15.3935H167.747V0.910354H168.304C169.344 0.910354 170.236 1.02176 170.978 1.24458C171.795 1.39313 172.724 1.72735 173.763 2.24726C174.655 1.80162 175.583 1.4674 176.549 1.24458C177.589 1.02176 178.517 0.910354 179.334 0.910354H180.114V15.3935H177.217L182.231 31.7706L186.575 15.3935H183.679V0.910354C184.941 0.910354 185.944 1.02176 186.687 1.24458C187.504 1.4674 188.507 1.98731 189.695 2.80431C190.809 2.13585 191.812 1.69022 192.703 1.4674C193.594 1.17031 194.671 0.984626 195.934 0.910354V15.3935H192.48L187.021 33.9988C186.65 35.0386 186.427 35.7814 186.353 36.227C186.278 36.5984 186.241 36.8583 186.241 37.0069C186.241 37.8239 186.798 38.7523 187.912 39.7921C186.575 40.3863 185.684 41.0547 185.239 41.7974C184.867 42.5402 184.682 43.8028 184.682 45.5854V61.6282H188.469V76.7799C187.058 76.7056 185.907 76.4828 185.016 76.1114C184.124 75.8143 183.048 75.2201 181.785 74.3289C180.299 75.2944 179.148 75.9257 178.331 76.2228C177.514 76.5199 176.586 76.7056 175.546 76.7799V61.6282ZM200.014 46.031C200.014 44.6941 199.977 43.58 199.903 42.6887C199.829 41.7974 199.717 41.0919 199.569 40.5719C199.42 39.9778 199.16 39.5321 198.789 39.235C198.492 38.8637 198.083 38.4923 197.563 38.121C198.083 37.6753 198.492 37.2668 198.789 36.8955C199.16 36.5241 199.42 36.0785 199.569 35.5585C199.791 35.0386 199.903 34.3702 199.903 33.5532C199.977 32.7362 200.014 31.6964 200.014 30.4337V14.9479C200.014 9.7488 200.794 6.0723 202.354 3.9184C203.914 1.69022 206.587 0.576125 210.375 0.576125C214.163 0.576125 216.8 1.65308 218.285 3.80699C219.845 5.9609 220.625 9.63739 220.625 14.8365V30.8794C220.625 32.2163 220.625 33.2561 220.625 33.9988C220.699 34.7415 220.811 35.3729 220.959 35.8928C221.108 36.3384 221.33 36.7098 221.628 37.0069C221.925 37.304 222.333 37.6753 222.853 38.121C221.962 38.9379 221.368 39.6807 221.07 40.3491C220.773 41.0176 220.625 41.9831 220.625 43.2458V61.294C220.625 64.7106 220.402 67.3101 219.956 69.0926C219.585 70.8752 218.879 72.3978 217.84 73.6604C217.023 74.7745 215.909 75.6286 214.497 76.2228C213.086 76.817 211.564 77.1141 209.93 77.1141C208.221 77.1141 206.624 76.7427 205.139 76C203.654 75.3315 202.539 74.4031 201.797 73.2148C201.128 72.1007 200.646 70.7266 200.348 69.0926C200.126 67.3844 200.014 64.9705 200.014 61.8511V46.031ZM205.696 32.5505C205.696 34.036 205.807 35.15 206.03 35.8928C206.327 36.6355 206.884 37.3782 207.701 38.121C206.884 38.7894 206.327 39.495 206.03 40.2377C205.807 40.9062 205.696 42.0945 205.696 43.8028V56.392C205.696 58.1003 206.105 59.4743 206.922 60.5142C207.739 61.4797 208.853 61.9625 210.264 61.9625C211.749 61.9625 212.9 61.4054 213.717 60.2913C214.534 59.1772 214.943 57.6175 214.943 55.6122V43.2458C214.943 41.7603 214.794 40.6834 214.497 40.0149C214.2 39.3464 213.606 38.7151 212.715 38.121C213.68 37.3782 214.275 36.6726 214.497 36.0042C214.794 35.2615 214.943 33.9245 214.943 31.9935V20.4069C214.943 16.2477 213.42 14.168 210.375 14.168C209.484 14.168 208.667 14.3908 207.924 14.8365C207.182 15.2078 206.624 15.7277 206.253 16.3962C206.03 16.8418 205.882 17.3246 205.807 17.8445C205.733 18.3644 205.696 19.2928 205.696 20.6297V32.5505ZM225.765 0.910354C227.251 0.910354 228.402 1.0589 229.219 1.35599C230.11 1.65308 231.039 2.2844 232.004 3.24994C233.044 2.35867 233.898 1.76449 234.567 1.4674C235.235 1.09604 235.941 0.910354 236.683 0.910354H237.575V15.3935H234.232V33.9988C234.232 35.7071 234.344 36.8212 234.567 37.3411C234.789 37.7867 235.495 38.3066 236.683 38.9008C236.089 39.2722 235.606 39.6064 235.235 39.9035C234.938 40.2006 234.715 40.6091 234.567 41.129C234.418 41.6489 234.307 42.3174 234.232 43.1344C234.232 43.8771 234.232 44.954 234.232 46.3652V56.1692C234.232 58.3231 234.567 59.8457 235.235 60.737C235.978 61.6282 237.203 62.0739 238.912 62.0739C242.105 62.0739 243.702 59.9942 243.702 55.835V46.2538C243.702 44.8426 243.665 43.7285 243.591 42.9115C243.591 42.0945 243.517 41.4632 243.368 41.0176C243.294 40.5719 243.108 40.2006 242.811 39.9035C242.514 39.6064 242.142 39.2722 241.697 38.9008C242.662 38.2324 243.219 37.6382 243.368 37.1183C243.591 36.5984 243.702 35.4471 243.702 33.6646V15.3935H240.36V0.910354C242.068 1.0589 243.294 1.31885 244.036 1.69021C244.853 2.06158 245.782 2.76717 246.822 3.80699C247.861 2.76717 248.753 2.06158 249.495 1.69021C250.312 1.31885 251.427 1.0589 252.838 0.910354V15.3935H249.05V33.6646C249.05 35.2986 249.198 36.4498 249.495 37.1183C249.793 37.7125 250.387 38.3066 251.278 38.9008C249.793 39.9406 249.05 41.5004 249.05 43.58V61.1826C249.05 66.7531 248.196 70.8009 246.487 73.3262C244.853 75.8515 242.254 77.1141 238.689 77.1141C236.609 77.1141 234.789 76.6313 233.23 75.6658C231.67 74.626 230.556 73.2519 229.887 71.5436C229.665 70.9495 229.479 70.4296 229.33 69.9839C229.182 69.464 229.07 68.8698 228.996 68.2014C228.996 67.4586 228.959 66.5674 228.885 65.5276C228.885 64.4877 228.885 63.0766 228.885 61.294V44.9169C228.885 43.0601 228.736 41.7974 228.439 41.129C228.142 40.3863 227.474 39.6435 226.434 38.9008C227.474 38.2324 228.142 37.601 228.439 37.0069C228.736 36.4127 228.885 35.3357 228.885 33.776V15.3935H225.097V0.910354H225.765ZM295.247 29.4311H289.565V19.7385C289.565 14.8365 288.228 12.3855 285.555 12.3855C284.886 12.3855 284.218 12.6083 283.549 13.0539C282.881 13.4996 282.361 14.0195 281.989 14.6137C281.618 15.4307 281.358 16.3591 281.21 17.3989C281.061 18.3644 280.987 19.9242 280.987 22.0781V55.0551C280.987 57.3576 281.061 58.9173 281.21 59.7343C281.358 60.5513 281.655 61.294 282.101 61.9625C282.472 62.4081 282.955 62.7795 283.549 63.0766C284.143 63.3737 284.738 63.5222 285.332 63.5222C286.074 63.5222 286.78 63.2622 287.448 62.7423C288.191 62.1482 288.711 61.5168 289.008 60.8484C289.38 59.5857 289.565 57.5804 289.565 54.8323V42.4659H285.332V36.0042H299.592V42.4659H295.247V77.1141C294.207 77.0398 293.39 76.817 292.796 76.4456C292.202 76.1485 291.571 75.443 290.902 74.3289C288.823 76.1857 286.446 77.1141 283.772 77.1141C282.361 77.1141 281.024 76.7427 279.761 76C278.499 75.183 277.459 74.106 276.642 72.7691C276.345 72.2492 276.085 71.7293 275.862 71.2094C275.713 70.6152 275.565 69.8725 275.416 68.9812C275.342 68.09 275.268 67.013 275.193 65.7504C275.193 64.4135 275.193 62.7423 275.193 60.737V43.4686C275.193 42.503 275.156 41.7603 275.082 41.2404C275.082 40.7205 275.008 40.2749 274.859 39.9035C274.711 39.4579 274.451 39.0494 274.079 38.678C273.782 38.3066 273.337 37.7867 272.742 37.1183C273.782 36.1527 274.451 35.3357 274.748 34.6673C275.045 33.9245 275.193 32.9219 275.193 31.6592V16.2848C275.193 11.0114 275.936 7.22353 277.422 4.92108C279.278 2.02444 281.729 0.576125 284.775 0.576125C286.854 0.576125 288.711 1.35599 290.345 2.91572C291.236 2.02444 291.979 1.4674 292.573 1.24458C293.167 0.947492 294.059 0.724673 295.247 0.576125V29.4311ZM301.924 0.910354C303.409 0.910354 304.56 1.0589 305.377 1.35599C306.269 1.65308 307.197 2.2844 308.163 3.24994C309.203 2.35867 310.057 1.76449 310.725 1.4674C311.394 1.09604 312.099 0.910354 312.842 0.910354H313.733V15.3935H310.391V33.9988C310.391 35.7071 310.502 36.8212 310.725 37.3411C310.948 37.7867 311.654 38.3066 312.842 38.9008C312.248 39.2722 311.765 39.6064 311.394 39.9035C311.096 40.2006 310.874 40.6091 310.725 41.129C310.577 41.6489 310.465 42.3174 310.391 43.1344C310.391 43.8771 310.391 44.954 310.391 46.3652V56.1692C310.391 58.3231 310.725 59.8457 311.394 60.737C312.136 61.6282 313.362 62.0739 315.07 62.0739C318.264 62.0739 319.861 59.9942 319.861 55.835V46.2538C319.861 44.8426 319.824 43.7285 319.749 42.9115C319.749 42.0945 319.675 41.4632 319.526 41.0176C319.452 40.5719 319.266 40.2006 318.969 39.9035C318.672 39.6064 318.301 39.2722 317.855 38.9008C318.821 38.2324 319.378 37.6382 319.526 37.1183C319.749 36.5984 319.861 35.4471 319.861 33.6646V15.3935H316.518V0.910354C318.227 1.0589 319.452 1.31885 320.195 1.69021C321.012 2.06158 321.94 2.76717 322.98 3.80699C324.02 2.76717 324.911 2.06158 325.654 1.69021C326.471 1.31885 327.585 1.0589 328.996 0.910354V15.3935H325.208V33.6646C325.208 35.2986 325.357 36.4498 325.654 37.1183C325.951 37.7125 326.545 38.3066 327.436 38.9008C325.951 39.9406 325.208 41.5004 325.208 43.58V61.1826C325.208 66.7531 324.354 70.8009 322.646 73.3262C321.012 75.8515 318.412 77.1141 314.847 77.1141C312.768 77.1141 310.948 76.6313 309.388 75.6658C307.828 74.626 306.714 73.2519 306.046 71.5436C305.823 70.9495 305.637 70.4296 305.489 69.9839C305.34 69.464 305.229 68.8698 305.155 68.2014C305.155 67.4586 305.118 66.5674 305.043 65.5276C305.043 64.4877 305.043 63.0766 305.043 61.294V44.9169C305.043 43.0601 304.895 41.7974 304.598 41.129C304.301 40.3863 303.632 39.6435 302.592 38.9008C303.632 38.2324 304.301 37.601 304.598 37.0069C304.895 36.4127 305.043 35.3357 305.043 33.776V15.3935H301.255V0.910354H301.924ZM338.96 61.6282H342.748V45.4739C342.748 43.9885 342.525 42.8744 342.08 42.1317C341.708 41.3147 340.891 40.5348 339.629 39.7921C340.817 38.9751 341.411 38.0838 341.411 37.1183C341.411 36.3755 341.226 35.5214 340.854 34.5559L334.95 15.3935H331.162V0.910354H331.719C332.759 0.910354 333.65 1.02176 334.393 1.24458C335.21 1.39313 336.138 1.72735 337.178 2.24726C338.069 1.80162 338.997 1.4674 339.963 1.24458C341.003 1.02176 341.931 0.910354 342.748 0.910354H343.528V15.3935H340.631L345.645 31.7706L349.99 15.3935H347.093V0.910354C348.356 0.910354 349.358 1.02176 350.101 1.24458C350.918 1.4674 351.921 1.98731 353.109 2.80431C354.223 2.13585 355.226 1.69022 356.117 1.4674C357.009 1.17031 358.086 0.984626 359.348 0.910354V15.3935H355.894L350.435 33.9988C350.064 35.0386 349.841 35.7814 349.767 36.227C349.693 36.5984 349.656 36.8583 349.656 37.0069C349.656 37.8239 350.213 38.7523 351.327 39.7921C349.99 40.3863 349.099 41.0547 348.653 41.7974C348.282 42.5402 348.096 43.8028 348.096 45.5854V61.6282H351.884V76.7799C350.473 76.7056 349.321 76.4828 348.43 76.1114C347.539 75.8143 346.462 75.2201 345.199 74.3289C343.714 75.2944 342.563 75.9257 341.746 76.2228C340.929 76.5199 340 76.7056 338.96 76.7799V61.6282ZM361.879 48.482H366.781V55.1665C366.781 58.286 367.115 60.477 367.784 61.7397C368.452 62.928 369.641 63.5222 371.349 63.5222C374.394 63.5222 375.917 60.8112 375.917 55.3893C375.917 53.4583 375.62 51.6014 375.025 49.8189C374.506 47.9621 373.577 45.8453 372.24 43.4686C371.646 42.3545 370.903 41.5004 370.012 40.9062C369.121 40.2377 368.23 39.9406 367.338 40.0149H366.781C367.078 39.4207 367.264 38.9751 367.338 38.678C367.413 38.3066 367.45 37.9724 367.45 37.6753C367.45 36.9326 367.041 35.9299 366.224 34.6673C365.333 33.2561 364.59 31.9192 363.996 30.6566C363.402 29.3939 362.919 28.0199 362.548 26.5344C362.251 25.049 362.028 23.415 361.879 21.6324C361.731 19.7756 361.656 17.5846 361.656 15.0593C361.656 12.2369 361.805 10.0459 362.102 8.48617C362.473 6.85217 363.105 5.40385 363.996 4.14121C364.739 3.1014 365.667 2.24726 366.781 1.57881C367.97 0.910352 369.195 0.576125 370.458 0.576125C371.349 0.576125 372.203 0.761806 373.02 1.13317C373.837 1.43026 374.877 2.09871 376.14 3.13853C376.957 2.17299 377.662 1.54167 378.256 1.24458C378.925 0.873216 379.668 0.650397 380.485 0.576125V30.6566H375.248V22.1895C375.248 19.6642 374.951 17.8817 374.357 16.8418C373.763 15.7277 372.723 15.1707 371.238 15.1707C370.049 15.1707 369.084 15.6163 368.341 16.5076C367.672 17.3246 367.338 18.4387 367.338 19.8499C367.338 21.8552 367.561 23.7121 368.007 25.4203C368.452 27.0543 369.269 29.0226 370.458 31.325C371.423 33.1818 372.277 34.4073 373.02 35.0015C373.763 35.5957 374.803 35.8928 376.14 35.8928C375.694 36.6355 375.471 37.304 375.471 37.8981C375.471 38.1952 375.471 38.4552 375.471 38.678C375.545 38.8265 375.694 39.1236 375.917 39.5693C376.14 40.0149 376.474 40.6462 376.919 41.4632C377.439 42.2802 378.145 43.3943 379.036 44.8055C380.225 46.8108 381.116 49.1133 381.71 51.7128C382.304 54.3124 382.601 57.3576 382.601 60.8484C382.601 66.7902 381.896 70.9866 380.485 73.4376C379.073 75.8886 376.659 77.1141 373.243 77.1141C371.757 77.1141 370.495 76.8913 369.455 76.4456C368.489 76 367.598 75.2573 366.781 74.2175C365.816 75.3315 364.999 76.0743 364.33 76.4456C363.736 76.817 362.919 77.0398 361.879 77.1141V48.482ZM397.487 61.9625V62.9652C397.487 64.0792 397.487 64.9705 397.487 65.639C397.561 66.2331 397.635 66.7531 397.709 67.1987C397.858 67.5701 398.044 67.9043 398.266 68.2014C398.564 68.4242 398.935 68.7213 399.381 69.0926C398.935 69.5383 398.564 69.9468 398.266 70.3181C398.044 70.6152 397.858 70.9495 397.709 71.3208C397.635 71.6922 397.561 72.175 397.487 72.7691C397.487 73.289 397.487 73.9946 397.487 74.8859V76L387.794 88.812V82.7959L392.585 76H388.128V74.7745C388.128 73.289 387.98 72.175 387.683 71.4322C387.386 70.6152 386.828 69.8354 386.011 69.0926C386.531 68.647 386.903 68.2756 387.126 67.9786C387.423 67.6072 387.645 67.2358 387.794 66.8645C387.943 66.4931 388.017 66.0475 388.017 65.5276C388.091 64.9334 388.128 64.1906 388.128 63.2994V61.9625H397.487ZM420.07 61.6282H423.858V43.58C423.858 42.1688 423.673 41.0919 423.301 40.3491C423.004 39.5321 422.447 38.7151 421.63 37.8981C422.15 37.4525 422.559 37.0811 422.856 36.784C423.153 36.4127 423.376 36.0413 423.524 35.67C423.673 35.2986 423.747 34.853 423.747 34.333C423.821 33.7389 423.858 32.9961 423.858 32.1049V15.3935H420.07V0.910354C421.927 1.0589 423.227 1.28171 423.97 1.57881C424.787 1.8759 425.678 2.47008 426.644 3.36135C427.758 2.47008 428.723 1.8759 429.54 1.57881C430.357 1.20744 431.471 0.984626 432.882 0.910354V15.3935H429.206V31.7706C429.206 32.8847 429.206 33.776 429.206 34.4445C429.206 35.0386 429.243 35.5585 429.317 36.0042C429.466 36.3755 429.652 36.7098 429.874 37.0069C430.172 37.2297 430.543 37.5268 430.989 37.8981C430.543 38.418 430.209 38.8265 429.986 39.1236C429.763 39.4207 429.577 39.7549 429.429 40.1263C429.355 40.4977 429.28 40.9804 429.206 41.5746C429.206 42.0945 429.206 42.8001 429.206 43.6914V61.6282H432.882V76.7799C431.62 76.7056 430.58 76.4828 429.763 76.1114C428.946 75.8143 427.906 75.183 426.644 74.2175C425.604 75.2573 424.675 75.9257 423.858 76.2228C423.116 76.5942 422.113 76.7799 420.85 76.7799H420.07V61.6282ZM448.199 1.69021L447.642 7.59489L447.531 8.9318C447.457 9.30316 447.42 9.60025 447.42 9.82307C447.42 10.0459 447.42 10.2316 447.42 10.3801C447.42 10.9 447.494 11.3828 447.642 11.8284C447.865 12.1998 448.274 12.6826 448.868 13.2767C448.051 14.0195 447.494 14.6879 447.197 15.2821C446.974 15.802 446.825 16.8047 446.751 18.2902L446.194 24.3062H439.621L439.064 18.2902C438.915 16.879 438.73 15.8763 438.507 15.2821C438.284 14.6879 437.764 14.0195 436.947 13.2767C437.541 12.6826 437.913 12.1998 438.061 11.8284C438.284 11.3828 438.395 10.9 438.395 10.3801C438.395 10.2316 438.395 10.0459 438.395 9.82307C438.395 9.60025 438.358 9.30316 438.284 8.9318L438.173 7.59489L437.616 1.69021H448.199ZM452.819 61.6282H456.606V42.3545C456.606 41.0919 456.458 40.1263 456.161 39.4579C455.864 38.7894 455.232 38.121 454.267 37.4525C455.827 35.8928 456.606 34.1845 456.606 32.3277V15.3935H452.819V0.910354H453.71C454.75 0.910354 455.641 1.0589 456.384 1.35599C457.201 1.65308 458.203 2.21013 459.392 3.02712C460.432 2.21013 461.323 1.65308 462.066 1.35599C462.808 1.0589 463.811 0.910354 465.074 0.910354L472.092 52.1585L479.557 0.910354C480.968 0.984626 482.082 1.17031 482.899 1.4674C483.79 1.69022 484.83 2.21013 486.018 3.02712C487.133 2.21013 488.024 1.69022 488.692 1.4674C489.361 1.17031 490.215 0.984626 491.255 0.910354V15.3935H487.467V32.6619C487.467 34.1474 487.615 35.2615 487.912 36.0042C488.209 36.6726 488.841 37.3411 489.806 38.0095C488.767 38.9751 488.098 39.8292 487.801 40.5719C487.578 41.3147 487.467 42.4288 487.467 43.9142V61.6282H491.255V76.7799C489.695 76.7799 488.432 76.6313 487.467 76.3342C486.575 76.1114 485.61 75.5915 484.57 74.7745C483.53 75.5172 482.602 76 481.785 76.2228C480.968 76.5199 479.891 76.7056 478.554 76.7799V61.6282H482.231V16.7304L473.763 76.7799H469.641L461.954 16.7304V61.6282H465.742V76.7799C464.108 76.557 462.883 76.2971 462.066 76C461.249 75.7772 460.357 75.3687 459.392 74.7745C458.129 75.5172 457.089 76 456.272 76.2228C455.455 76.4456 454.304 76.6313 452.819 76.7799V61.6282ZM534.058 29.4311H528.376V19.7385C528.376 14.8365 527.04 12.3855 524.366 12.3855C523.697 12.3855 523.029 12.6083 522.36 13.0539C521.692 13.4996 521.172 14.0195 520.801 14.6137C520.429 15.4307 520.169 16.3591 520.021 17.3989C519.872 18.3644 519.798 19.9242 519.798 22.0781V55.0551C519.798 57.3576 519.872 58.9173 520.021 59.7343C520.169 60.5513 520.466 61.294 520.912 61.9625C521.283 62.4081 521.766 62.7795 522.36 63.0766C522.955 63.3737 523.549 63.5222 524.143 63.5222C524.886 63.5222 525.591 63.2622 526.26 62.7423C527.002 62.1482 527.522 61.5168 527.819 60.8484C528.191 59.5857 528.376 57.5804 528.376 54.8323V42.4659H524.143V36.0042H538.403V42.4659H534.058V77.1141C533.019 77.0398 532.202 76.817 531.607 76.4456C531.013 76.1485 530.382 75.443 529.713 74.3289C527.634 76.1857 525.257 77.1141 522.583 77.1141C521.172 77.1141 519.835 76.7427 518.572 76C517.31 75.183 516.27 74.106 515.453 72.7691C515.156 72.2492 514.896 71.7293 514.673 71.2094C514.525 70.6152 514.376 69.8725 514.228 68.9812C514.153 68.09 514.079 67.013 514.005 65.7504C514.005 64.4135 514.005 62.7423 514.005 60.737V43.4686C514.005 42.503 513.968 41.7603 513.893 41.2404C513.893 40.7205 513.819 40.2749 513.67 39.9035C513.522 39.4579 513.262 39.0494 512.891 38.678C512.594 38.3066 512.148 37.7867 511.554 37.1183C512.594 36.1527 513.262 35.3357 513.559 34.6673C513.856 33.9245 514.005 32.9219 514.005 31.6592V16.2848C514.005 11.0114 514.747 7.22353 516.233 4.92108C518.09 2.02444 520.541 0.576125 523.586 0.576125C525.666 0.576125 527.522 1.35599 529.156 2.91572C530.048 2.02444 530.79 1.4674 531.385 1.24458C531.979 0.947492 532.87 0.724673 534.058 0.576125V29.4311ZM542.183 46.031C542.183 44.6941 542.146 43.58 542.072 42.6887C541.998 41.7974 541.886 41.0919 541.738 40.5719C541.589 39.9778 541.329 39.5321 540.958 39.235C540.661 38.8637 540.252 38.4923 539.732 38.121C540.252 37.6753 540.661 37.2668 540.958 36.8955C541.329 36.5241 541.589 36.0785 541.738 35.5585C541.961 35.0386 542.072 34.3702 542.072 33.5532C542.146 32.7362 542.183 31.6964 542.183 30.4337V14.9479C542.183 9.7488 542.963 6.0723 544.523 3.9184C546.083 1.69022 548.756 0.576125 552.544 0.576125C556.332 0.576125 558.969 1.65308 560.454 3.80699C562.014 5.9609 562.794 9.63739 562.794 14.8365V30.8794C562.794 32.2163 562.794 33.2561 562.794 33.9988C562.868 34.7415 562.98 35.3729 563.128 35.8928C563.277 36.3384 563.5 36.7098 563.797 37.0069C564.094 37.304 564.502 37.6753 565.022 38.121C564.131 38.9379 563.537 39.6807 563.24 40.3491C562.943 41.0176 562.794 41.9831 562.794 43.2458V61.294C562.794 64.7106 562.571 67.3101 562.126 69.0926C561.754 70.8752 561.049 72.3978 560.009 73.6604C559.192 74.7745 558.078 75.6286 556.667 76.2228C555.255 76.817 553.733 77.1141 552.099 77.1141C550.39 77.1141 548.794 76.7427 547.308 76C545.823 75.3315 544.709 74.4031 543.966 73.2148C543.297 72.1007 542.815 70.7266 542.518 69.0926C542.295 67.3844 542.183 64.9705 542.183 61.8511V46.031ZM547.865 32.5505C547.865 34.036 547.977 35.15 548.199 35.8928C548.497 36.6355 549.054 37.3782 549.871 38.121C549.054 38.7894 548.497 39.495 548.199 40.2377C547.977 40.9062 547.865 42.0945 547.865 43.8028V56.392C547.865 58.1003 548.274 59.4743 549.091 60.5142C549.908 61.4797 551.022 61.9625 552.433 61.9625C553.918 61.9625 555.07 61.4054 555.887 60.2913C556.704 59.1772 557.112 57.6175 557.112 55.6122V43.2458C557.112 41.7603 556.964 40.6834 556.667 40.0149C556.369 39.3464 555.775 38.7151 554.884 38.121C555.85 37.3782 556.444 36.6726 556.667 36.0042C556.964 35.2615 557.112 33.9245 557.112 31.9935V20.4069C557.112 16.2477 555.59 14.168 552.544 14.168C551.653 14.168 550.836 14.3908 550.093 14.8365C549.351 15.2078 548.794 15.7277 548.422 16.3962C548.199 16.8418 548.051 17.3246 547.977 17.8445C547.902 18.3644 547.865 19.2928 547.865 20.6297V32.5505ZM567.6 61.6282H571.388V43.58C571.388 42.1688 571.202 41.0919 570.831 40.3491C570.534 39.5321 569.977 38.7151 569.16 37.8981C569.68 37.4525 570.088 37.0811 570.385 36.784C570.683 36.4127 570.905 36.0413 571.054 35.67C571.202 35.2986 571.277 34.853 571.277 34.333C571.351 33.7389 571.388 32.9961 571.388 32.1049V15.3935H567.6V0.910354C569.457 1.0589 570.757 1.28171 571.5 1.57881C572.317 1.8759 573.208 2.47008 574.173 3.36135C575.287 2.47008 576.253 1.8759 577.07 1.57881C577.887 1.20744 579.001 0.984626 580.412 0.910354V15.3935H576.736V31.7706C576.736 32.8847 576.736 33.776 576.736 34.4445C576.736 35.0386 576.773 35.5585 576.847 36.0042C576.996 36.3755 577.181 36.7098 577.404 37.0069C577.701 37.2297 578.073 37.5268 578.518 37.8981C578.073 38.418 577.738 38.8265 577.516 39.1236C577.293 39.4207 577.107 39.7549 576.959 40.1263C576.884 40.4977 576.81 40.9804 576.736 41.5746C576.736 42.0945 576.736 42.8001 576.736 43.6914V61.6282H580.412V76.7799C579.15 76.7056 578.11 76.4828 577.293 76.1114C576.476 75.8143 575.436 75.183 574.173 74.2175C573.134 75.2573 572.205 75.9257 571.388 76.2228C570.645 76.5942 569.643 76.7799 568.38 76.7799H567.6V61.6282ZM583.92 61.6282H587.708V44.0256C587.708 42.8373 587.522 41.9089 587.151 41.2404C586.779 40.4977 586.037 39.7178 584.923 38.9008C585.962 38.1581 586.668 37.4525 587.039 36.784C587.485 36.1156 587.708 35.1872 587.708 33.9988V15.3935H583.92V0.910354C585.48 0.984626 586.594 1.13317 587.262 1.35599C587.931 1.50453 588.748 1.8759 589.713 2.47008C590.307 2.09872 590.753 1.83876 591.05 1.69021C591.421 1.4674 592.016 1.20745 592.833 0.910354L602.637 48.2592V15.3935H599.294V0.910354C600.928 0.984626 602.228 1.20744 603.194 1.57881C604.159 1.95017 605.125 2.65576 606.09 3.69558C607.056 2.73003 607.91 2.06158 608.653 1.69021C609.47 1.31885 610.472 1.0589 611.661 0.910354V15.3935H607.873V32.7733C607.873 33.7389 607.873 34.5187 607.873 35.1129C607.947 35.7071 608.059 36.227 608.207 36.6726C608.43 37.044 608.69 37.4154 608.987 37.7867C609.284 38.0838 609.73 38.4552 610.324 38.9008C609.284 39.8664 608.616 40.7205 608.318 41.4632C608.021 42.1317 607.873 43.2086 607.873 44.6941V76.6685H602.637L593.055 27.2029V61.6282H596.732V76.6685C595.321 76.6685 594.17 76.4828 593.278 76.1114C592.461 75.74 591.57 75.0345 590.604 73.9946C589.639 75.0345 588.71 75.74 587.819 76.1114C587.002 76.557 585.962 76.7799 584.7 76.7799C584.403 76.7799 584.143 76.7427 583.92 76.6685V61.6282ZM636.655 29.4311H630.973V19.7385C630.973 14.8365 629.636 12.3855 626.962 12.3855C626.294 12.3855 625.625 12.6083 624.957 13.0539C624.288 13.4996 623.768 14.0195 623.397 14.6137C623.026 15.4307 622.766 16.3591 622.617 17.3989C622.469 18.3644 622.394 19.9242 622.394 22.0781V55.0551C622.394 57.3576 622.469 58.9173 622.617 59.7343C622.766 60.5513 623.063 61.294 623.508 61.9625C623.88 62.4081 624.363 62.7795 624.957 63.0766C625.551 63.3737 626.145 63.5222 626.739 63.5222C627.482 63.5222 628.188 63.2622 628.856 62.7423C629.599 62.1482 630.119 61.5168 630.416 60.8484C630.787 59.5857 630.973 57.5804 630.973 54.8323V42.4659H626.739V36.0042H641V42.4659H636.655V77.1141C635.615 77.0398 634.798 76.817 634.204 76.4456C633.61 76.1485 632.978 75.443 632.31 74.3289C630.23 76.1857 627.853 77.1141 625.18 77.1141C623.768 77.1141 622.431 76.7427 621.169 76C619.906 75.183 618.866 74.106 618.049 72.7691C617.752 72.2492 617.492 71.7293 617.27 71.2094C617.121 70.6152 616.972 69.8725 616.824 68.9812C616.75 68.09 616.675 67.013 616.601 65.7504C616.601 64.4135 616.601 62.7423 616.601 60.737V43.4686C616.601 42.503 616.564 41.7603 616.49 41.2404C616.49 40.7205 616.415 40.2749 616.267 39.9035C616.118 39.4579 615.858 39.0494 615.487 38.678C615.19 38.3066 614.744 37.7867 614.15 37.1183C615.19 36.1527 615.858 35.3357 616.155 34.6673C616.453 33.9245 616.601 32.9219 616.601 31.6592V16.2848C616.601 11.0114 617.344 7.22353 618.829 4.92108C620.686 2.02444 623.137 0.576125 626.182 0.576125C628.262 0.576125 630.119 1.35599 631.753 2.91572C632.644 2.02444 633.387 1.4674 633.981 1.24458C634.575 0.947492 635.466 0.724673 636.655 0.576125V29.4311ZM682.238 28.7626H676.668V20.7412C676.668 15.9134 675.257 13.4996 672.434 13.4996C671.023 13.4996 669.946 14.1309 669.204 15.3935C668.461 16.6562 668.089 18.4387 668.089 20.7412V31.325C668.089 32.4391 668.127 33.3675 668.201 34.1102C668.275 34.7787 668.424 35.3357 668.646 35.7814C668.869 36.227 669.166 36.6355 669.538 37.0069C669.983 37.304 670.578 37.601 671.32 37.8981C670.058 38.5666 669.204 39.3093 668.758 40.1263C668.312 40.869 668.089 42.0203 668.089 43.58V55.6122C668.089 56.4292 668.164 57.4318 668.312 58.6202C668.461 59.7343 668.609 60.5513 668.758 61.0712C668.981 61.7397 669.426 62.3338 670.095 62.8537C670.838 63.2994 671.617 63.5222 672.434 63.5222C675.257 63.5222 676.668 61.4797 676.668 57.3947V48.9276H682.238V62.9652C682.238 67.8671 681.421 71.4694 679.787 73.7718C678.228 76 675.665 77.1141 672.1 77.1141C670.466 77.1141 668.944 76.7799 667.532 76.1114C666.195 75.443 665.193 74.5888 664.524 73.549C663.782 72.2864 663.225 70.6152 662.853 68.5356C662.556 66.456 662.408 63.6336 662.408 60.0685V44.5827C662.408 43.4686 662.37 42.5773 662.296 41.9089C662.222 41.2404 662.11 40.6834 661.962 40.2377C661.813 39.7178 661.553 39.3093 661.182 39.0122C660.811 38.6409 660.365 38.2695 659.845 37.8981C660.885 37.0811 661.553 36.3013 661.851 35.5585C662.222 34.8158 662.408 33.6275 662.408 31.9935V13.4996C662.408 9.41457 663.15 6.25798 664.636 4.0298C666.195 1.72735 668.349 0.576125 671.097 0.576125C672.212 0.576125 673.14 0.798944 673.883 1.24458C674.7 1.69022 675.628 2.54435 676.668 3.80699C677.559 2.6929 678.376 1.91303 679.119 1.4674C679.936 1.02176 680.976 0.724673 682.238 0.576125V28.7626ZM685.537 0.910354C686.725 1.0589 687.617 1.28171 688.211 1.57881C688.879 1.8759 689.585 2.39581 690.328 3.13853C691.59 2.32153 692.779 1.76449 693.893 1.4674C695.007 1.09604 696.418 0.910354 698.126 0.910354C700.652 0.910354 702.657 1.35599 704.142 2.24726C705.702 3.06426 706.89 4.43831 707.707 6.3694C707.93 6.96357 708.116 7.55775 708.265 8.15194C708.487 8.67184 708.636 9.3403 708.71 10.1573C708.784 10.9743 708.822 11.977 708.822 13.1653C708.896 14.2794 708.933 15.6906 708.933 17.3989C709.007 18.8101 709.156 19.8127 709.379 20.4069C709.676 21.0011 710.307 21.6324 711.273 22.3009C710.456 22.9693 709.899 23.6378 709.601 24.3062C709.304 24.9004 709.156 25.9031 709.156 27.3143C709.23 30.5823 708.97 32.9219 708.376 34.333C707.856 35.7442 706.816 36.784 705.256 37.4525C708.079 39.0865 709.49 41.5746 709.49 44.9169V61.6282H713.278V76.6685H711.607C710.493 76.6685 709.453 76.4828 708.487 76.1114C707.522 75.74 706.742 75.2201 706.148 74.5517C705.702 74.0318 705.331 73.549 705.034 73.1034C704.811 72.6577 704.625 72.0635 704.477 71.3208C704.328 70.5781 704.217 69.6126 704.142 68.4242C704.142 67.2358 704.142 65.6761 704.142 63.745V48.2592C704.142 45.2883 703.697 43.32 702.805 42.3545C701.914 41.3147 700.169 40.7948 697.569 40.7948H694.673V61.6282H698.461V76.7799C697.049 76.7799 695.935 76.6313 695.118 76.3342C694.301 76.0371 693.373 75.4058 692.333 74.4403C691.442 75.2573 690.513 75.8143 689.548 76.1114C688.657 76.4828 687.32 76.7056 685.537 76.7799V61.6282H689.325V44.8055C689.325 43.5429 689.102 42.5402 688.657 41.7974C688.285 40.9804 687.58 40.2006 686.54 39.4579C687.654 38.6409 688.397 37.8239 688.768 37.0069C689.139 36.1156 689.325 34.8158 689.325 33.1075V15.3935H685.537V0.910354ZM694.673 34.333C696.678 34.333 698.238 34.2588 699.352 34.1102C700.54 33.8874 701.431 33.4418 702.026 32.7733C702.694 32.1049 703.103 31.1022 703.251 29.7653C703.4 28.4284 703.474 26.6458 703.474 24.4176C703.474 21.4467 703.288 19.3671 702.917 18.1787C702.546 16.9904 701.803 16.2105 700.689 15.8392C700.466 15.7649 700.206 15.6906 699.909 15.6163C699.686 15.5421 699.389 15.5049 699.018 15.5049C698.646 15.4307 698.089 15.3935 697.346 15.3935C696.678 15.3935 695.787 15.3935 694.673 15.3935V34.333ZM720.623 61.6282H724.411V45.4739C724.411 43.9885 724.188 42.8744 723.743 42.1317C723.371 41.3147 722.554 40.5348 721.292 39.7921C722.48 38.9751 723.074 38.0838 723.074 37.1183C723.074 36.3755 722.888 35.5214 722.517 34.5559L716.612 15.3935H712.824V0.910354H713.382C714.421 0.910354 715.313 1.02176 716.055 1.24458C716.872 1.39313 717.801 1.72735 718.841 2.24726C719.732 1.80162 720.66 1.4674 721.626 1.24458C722.666 1.02176 723.594 0.910354 724.411 0.910354H725.191V15.3935H722.294L727.308 31.7706L731.653 15.3935H728.756V0.910354C730.019 0.910354 731.021 1.02176 731.764 1.24458C732.581 1.4674 733.584 1.98731 734.772 2.80431C735.886 2.13585 736.889 1.69022 737.78 1.4674C738.671 1.17031 739.748 0.984626 741.011 0.910354V15.3935H737.557L732.098 33.9988C731.727 35.0386 731.504 35.7814 731.43 36.227C731.356 36.5984 731.318 36.8583 731.318 37.0069C731.318 37.8239 731.875 38.7523 732.99 39.7921C731.653 40.3863 730.761 41.0547 730.316 41.7974C729.944 42.5402 729.759 43.8028 729.759 45.5854V61.6282H733.547V76.7799C732.135 76.7056 730.984 76.4828 730.093 76.1114C729.202 75.8143 728.125 75.2201 726.862 74.3289C725.377 75.2944 724.225 75.9257 723.408 76.2228C722.591 76.5199 721.663 76.7056 720.623 76.7799V61.6282ZM743.309 0.910354C744.571 1.0589 745.537 1.28171 746.205 1.57881C746.948 1.80163 747.728 2.32153 748.545 3.13853C749.585 2.32153 750.662 1.76449 751.776 1.4674C752.964 1.09604 754.412 0.910354 756.121 0.910354C760.429 0.910354 763.474 2.61863 765.256 6.03517C765.479 6.55507 765.665 7.07498 765.813 7.59489C765.962 8.04053 766.073 8.59757 766.148 9.26603C766.222 9.93448 766.259 10.8258 766.259 11.9398C766.333 12.9797 766.37 14.3166 766.37 15.9506C766.37 16.9904 766.482 17.8445 766.705 18.513C767.002 19.1814 767.447 19.8499 768.042 20.5183C767.596 20.964 767.262 21.3725 767.039 21.7438C766.816 22.0409 766.63 22.4123 766.482 22.8579C766.408 23.3036 766.333 23.8977 766.259 24.6405C766.259 25.3089 766.259 26.2745 766.259 27.5371C766.705 36.1527 762.1 40.312 752.444 40.0149V61.6282H756.121V76.7799C754.412 76.7056 753.076 76.5199 752.11 76.2228C751.144 75.9257 750.142 75.3687 749.102 74.5517C748.136 75.3687 747.245 75.9257 746.428 76.2228C745.611 76.5942 744.571 76.7799 743.309 76.7799V61.6282H747.097V47.3679C747.097 45.5854 747.059 44.2113 746.985 43.2458C746.985 42.2059 746.911 41.3889 746.762 40.7948C746.614 40.2006 746.391 39.7178 746.094 39.3464C745.797 38.9751 745.351 38.5294 744.757 38.0095C745.277 37.5639 745.685 37.1554 745.983 36.784C746.28 36.3384 746.502 35.8928 746.651 35.4471C746.874 34.9272 746.985 34.2959 746.985 33.5532C747.059 32.8105 747.097 31.8078 747.097 30.5451V15.3935H743.309V0.910354ZM752.444 33.3304H753.781C755.267 33.3304 756.269 33.2932 756.789 33.219C757.309 33.0704 757.866 32.7362 758.46 32.2163C759.277 31.4735 759.834 30.5823 760.131 29.5425C760.429 28.4284 760.577 26.6087 760.577 24.0834C760.577 22.1523 760.503 20.6297 760.354 19.5157C760.206 18.3273 759.909 17.436 759.463 16.8418C759.017 16.2477 758.349 15.8763 757.458 15.7277C756.566 15.5049 755.415 15.3935 754.004 15.3935H752.444V33.3304ZM775.962 61.6282H780.196V44.5827C780.196 43.0972 780.047 41.9831 779.75 41.2404C779.453 40.4977 778.859 39.7178 777.967 38.9008C778.933 38.2324 779.527 37.6382 779.75 37.1183C780.047 36.5984 780.196 35.7071 780.196 34.4445V14.168C776.63 14.3908 774.848 18.9215 774.848 27.7599V29.7653H770.726V0.910354C771.84 1.0589 772.731 1.28171 773.4 1.57881C774.068 1.80163 774.811 2.2844 775.628 3.02712C776.965 2.21013 778.153 1.65308 779.193 1.35599C780.307 1.0589 781.458 0.910354 782.647 0.910354C785.172 0.910354 787.623 1.61594 790 3.02712C790.965 2.2844 791.745 1.80163 792.339 1.57881C793.008 1.28171 793.862 1.0589 794.902 0.910354V29.7653H790.891V27.7599C790.891 18.9215 789.108 14.3908 785.543 14.168V34.4445C785.543 35.7071 785.655 36.5984 785.877 37.1183C786.174 37.6382 786.769 38.2324 787.66 38.9008C786.843 39.7178 786.286 40.4977 785.989 41.2404C785.692 41.9831 785.543 43.0972 785.543 44.5827V61.6282H789.665V76.7799C788.403 76.6313 787.363 76.4456 786.546 76.2228C785.729 76 784.578 75.4801 783.092 74.6631C782.424 75.1087 781.83 75.443 781.31 75.6658C780.79 75.8886 780.27 76.0743 779.75 76.2228C779.23 76.3714 778.673 76.4828 778.079 76.557C777.559 76.6313 776.853 76.7056 775.962 76.7799V61.6282ZM798.837 46.031C798.837 44.6941 798.8 43.58 798.726 42.6887C798.652 41.7974 798.54 41.0919 798.392 40.5719C798.243 39.9778 797.983 39.5321 797.612 39.235C797.315 38.8637 796.906 38.4923 796.386 38.121C796.906 37.6753 797.315 37.2668 797.612 36.8955C797.983 36.5241 798.243 36.0785 798.392 35.5585C798.615 35.0386 798.726 34.3702 798.726 33.5532C798.8 32.7362 798.837 31.6964 798.837 30.4337V14.9479C798.837 9.7488 799.617 6.0723 801.177 3.9184C802.737 1.69022 805.411 0.576125 809.198 0.576125C812.986 0.576125 815.623 1.65308 817.108 3.80699C818.668 5.9609 819.448 9.63739 819.448 14.8365V30.8794C819.448 32.2163 819.448 33.2561 819.448 33.9988C819.522 34.7415 819.634 35.3729 819.782 35.8928C819.931 36.3384 820.154 36.7098 820.451 37.0069C820.748 37.304 821.156 37.6753 821.676 38.121C820.785 38.9379 820.191 39.6807 819.894 40.3491C819.597 41.0176 819.448 41.9831 819.448 43.2458V61.294C819.448 64.7106 819.225 67.3101 818.78 69.0926C818.408 70.8752 817.703 72.3978 816.663 73.6604C815.846 74.7745 814.732 75.6286 813.321 76.2228C811.909 76.817 810.387 77.1141 808.753 77.1141C807.045 77.1141 805.448 76.7427 803.962 76C802.477 75.3315 801.363 74.4031 800.62 73.2148C799.951 72.1007 799.469 70.7266 799.172 69.0926C798.949 67.3844 798.837 64.9705 798.837 61.8511V46.031ZM804.519 32.5505C804.519 34.036 804.631 35.15 804.853 35.8928C805.151 36.6355 805.708 37.3782 806.525 38.121C805.708 38.7894 805.151 39.495 804.853 40.2377C804.631 40.9062 804.519 42.0945 804.519 43.8028V56.392C804.519 58.1003 804.928 59.4743 805.745 60.5142C806.562 61.4797 807.676 61.9625 809.087 61.9625C810.572 61.9625 811.724 61.4054 812.541 60.2913C813.358 59.1772 813.766 57.6175 813.766 55.6122V43.2458C813.766 41.7603 813.618 40.6834 813.321 40.0149C813.023 39.3464 812.429 38.7151 811.538 38.121C812.504 37.3782 813.098 36.6726 813.321 36.0042C813.618 35.2615 813.766 33.9245 813.766 31.9935V20.4069C813.766 16.2477 812.244 14.168 809.198 14.168C808.307 14.168 807.49 14.3908 806.747 14.8365C806.005 15.2078 805.448 15.7277 805.076 16.3962C804.853 16.8418 804.705 17.3246 804.631 17.8445C804.556 18.3644 804.519 19.2928 804.519 20.6297V32.5505ZM828.599 42.5773C828.451 41.5375 828.191 40.7948 827.819 40.3491C827.522 39.8292 826.854 39.3093 825.814 38.7894C826.78 37.8981 827.411 37.1554 827.708 36.5612C828.005 35.967 828.154 35.1872 828.154 34.2216C828.154 34.0731 828.154 33.776 828.154 33.3304C828.154 32.8847 828.079 32.2905 827.931 31.5478L827.04 20.5183V0.910354C828.079 0.910354 828.859 0.984626 829.379 1.13317C829.973 1.28172 830.679 1.61594 831.496 2.13585C832.164 1.91304 832.684 1.72735 833.056 1.57881C833.501 1.43026 833.873 1.31886 834.17 1.24458C834.467 1.09604 834.764 1.02176 835.061 1.02176C835.358 0.94749 835.692 0.910354 836.064 0.910354V20.5183L835.395 31.325C835.321 32.5876 835.284 33.3304 835.284 33.5532C835.284 33.776 835.284 33.9988 835.284 34.2216C835.284 35.3357 835.395 36.227 835.618 36.8955C835.915 37.5639 836.472 38.1952 837.289 38.7894C836.324 39.3836 835.655 39.9778 835.284 40.5719C834.912 41.0919 834.652 41.8717 834.504 42.9115L833.167 57.8403H830.048L828.599 42.5773ZM835.952 61.9625V62.9652C835.952 64.0792 835.952 64.9705 835.952 65.639C836.027 66.2331 836.101 66.7531 836.175 67.1987C836.324 67.5701 836.509 67.9043 836.732 68.2014C837.029 68.4242 837.401 68.7213 837.846 69.0926C837.401 69.5383 837.029 69.9468 836.732 70.3181C836.509 70.6152 836.324 70.9495 836.175 71.3208C836.101 71.6922 836.027 72.175 835.952 72.7691C835.952 73.289 835.952 73.9946 835.952 74.8859V76H827.04V74.7745C827.04 73.4376 826.891 72.3606 826.594 71.5436C826.297 70.7266 825.74 69.9096 824.923 69.0926C825.443 68.647 825.814 68.2756 826.037 67.9786C826.334 67.6072 826.557 67.2358 826.705 66.8645C826.854 66.4188 826.928 65.9361 826.928 65.4161C827.002 64.8962 827.04 64.1906 827.04 63.2994V61.9625H835.952ZM881.23 28.7626H875.659V20.7412C875.659 15.9134 874.248 13.4996 871.426 13.4996C870.014 13.4996 868.937 14.1309 868.195 15.3935C867.452 16.6562 867.081 18.4387 867.081 20.7412V31.325C867.081 32.4391 867.118 33.3675 867.192 34.1102C867.266 34.7787 867.415 35.3357 867.638 35.7814C867.86 36.227 868.158 36.6355 868.529 37.0069C868.975 37.304 869.569 37.601 870.311 37.8981C869.049 38.5666 868.195 39.3093 867.749 40.1263C867.303 40.869 867.081 42.0203 867.081 43.58V55.6122C867.081 56.4292 867.155 57.4318 867.303 58.6202C867.452 59.7343 867.601 60.5513 867.749 61.0712C867.972 61.7397 868.418 62.3338 869.086 62.8537C869.829 63.2994 870.609 63.5222 871.426 63.5222C874.248 63.5222 875.659 61.4797 875.659 57.3947V48.9276H881.23V62.9652C881.23 67.8671 880.413 71.4694 878.779 73.7718C877.219 76 874.656 77.1141 871.091 77.1141C869.457 77.1141 867.935 76.7799 866.524 76.1114C865.187 75.443 864.184 74.5888 863.516 73.549C862.773 72.2864 862.216 70.6152 861.844 68.5356C861.547 66.456 861.399 63.6336 861.399 60.0685V44.5827C861.399 43.4686 861.362 42.5773 861.287 41.9089C861.213 41.2404 861.102 40.6834 860.953 40.2377C860.805 39.7178 860.545 39.3093 860.173 39.0122C859.802 38.6409 859.356 38.2695 858.836 37.8981C859.876 37.0811 860.545 36.3013 860.842 35.5585C861.213 34.8158 861.399 33.6275 861.399 31.9935V13.4996C861.399 9.41457 862.141 6.25798 863.627 4.0298C865.187 1.72735 867.341 0.576125 870.089 0.576125C871.203 0.576125 872.131 0.798944 872.874 1.24458C873.691 1.69022 874.619 2.54435 875.659 3.80699C876.55 2.6929 877.367 1.91303 878.11 1.4674C878.927 1.02176 879.967 0.724673 881.23 0.576125V28.7626ZM883.637 61.6282H886.979L888.985 45.3625C889.133 44.9169 889.207 44.5084 889.207 44.137C889.207 43.7657 889.207 43.3943 889.207 43.0229C889.207 42.2059 889.022 41.5004 888.65 40.9062C888.353 40.312 887.796 39.6064 886.979 38.7894C888.019 38.1952 888.725 37.601 889.096 37.0069C889.467 36.3384 889.802 35.2615 890.099 33.776L893.107 15.3935H889.987V1.02176H891.213C892.773 1.02176 893.998 1.20744 894.889 1.57881C895.781 1.8759 896.709 2.47008 897.675 3.36135C898.863 2.47008 899.866 1.83876 900.683 1.4674C901.574 1.09604 902.465 0.910354 903.356 0.910354C903.505 0.910354 903.691 0.910354 903.913 0.910354C904.211 0.910354 904.508 0.94749 904.805 1.02176V15.3935H901.797L903.913 33.776C904.062 35.1872 904.359 36.1899 904.805 36.784C905.25 37.3782 906.105 38.0467 907.367 38.7894C906.402 39.6064 905.733 40.3863 905.362 41.129C905.065 41.8717 904.916 42.763 904.916 43.8028C904.916 44.397 904.953 44.8426 905.028 45.1397L907.367 61.6282H910.709V76.7799C909.373 76.6313 908.333 76.4456 907.59 76.2228C906.847 76 905.993 75.4801 905.028 74.6631C903.988 75.4801 903.059 76 902.242 76.2228C901.5 76.5199 900.386 76.7056 898.9 76.7799V61.6282H902.354L900.683 47.1451H893.664L891.881 61.6282H895.335V76.7799C894.147 76.7056 893.218 76.5199 892.55 76.2228C891.881 76 890.953 75.4801 889.765 74.6631C888.502 75.5544 887.536 76.1114 886.868 76.3342C886.274 76.6313 885.457 76.7799 884.417 76.7799H883.637V61.6282ZM899.791 41.0176L897.229 21.6324L894.555 41.0176H899.791ZM913.033 0.910354C914.222 1.0589 915.113 1.28171 915.707 1.57881C916.376 1.8759 917.081 2.39581 917.824 3.13853C919.087 2.32153 920.275 1.76449 921.389 1.4674C922.503 1.09604 923.914 0.910354 925.623 0.910354C928.148 0.910354 930.153 1.35599 931.639 2.24726C933.198 3.06426 934.387 4.43831 935.204 6.3694C935.427 6.96357 935.612 7.55775 935.761 8.15194C935.984 8.67184 936.132 9.3403 936.206 10.1573C936.281 10.9743 936.318 11.977 936.318 13.1653C936.392 14.2794 936.429 15.6906 936.429 17.3989C936.503 18.8101 936.652 19.8127 936.875 20.4069C937.172 21.0011 937.803 21.6324 938.769 22.3009C937.952 22.9693 937.395 23.6378 937.098 24.3062C936.801 24.9004 936.652 25.9031 936.652 27.3143C936.726 30.5823 936.466 32.9219 935.872 34.333C935.352 35.7442 934.312 36.784 932.753 37.4525C935.575 39.0865 936.986 41.5746 936.986 44.9169V61.6282H940.774V76.6685H939.103C937.989 76.6685 936.949 76.4828 935.984 76.1114C935.018 75.74 934.238 75.2201 933.644 74.5517C933.198 74.0318 932.827 73.549 932.53 73.1034C932.307 72.6577 932.121 72.0635 931.973 71.3208C931.824 70.5781 931.713 69.6126 931.639 68.4242C931.639 67.2358 931.639 65.6761 931.639 63.745V48.2592C931.639 45.2883 931.193 43.32 930.302 42.3545C929.41 41.3147 927.665 40.7948 925.065 40.7948H922.169V61.6282H925.957V76.7799C924.546 76.7799 923.431 76.6313 922.614 76.3342C921.797 76.0371 920.869 75.4058 919.829 74.4403C918.938 75.2573 918.01 75.8143 917.044 76.1114C916.153 76.4828 914.816 76.7056 913.033 76.7799V61.6282H916.821V44.8055C916.821 43.5429 916.598 42.5402 916.153 41.7974C915.781 40.9804 915.076 40.2006 914.036 39.4579C915.15 38.6409 915.893 37.8239 916.264 37.0069C916.636 36.1156 916.821 34.8158 916.821 33.1075V15.3935H913.033V0.910354ZM922.169 34.333C924.174 34.333 925.734 34.2588 926.848 34.1102C928.036 33.8874 928.928 33.4418 929.522 32.7733C930.19 32.1049 930.599 31.1022 930.747 29.7653C930.896 28.4284 930.97 26.6458 930.97 24.4176C930.97 21.4467 930.784 19.3671 930.413 18.1787C930.042 16.9904 929.299 16.2105 928.185 15.8392C927.962 15.7649 927.702 15.6906 927.405 15.6163C927.182 15.5421 926.885 15.5049 926.514 15.5049C926.142 15.4307 925.585 15.3935 924.843 15.3935C924.174 15.3935 923.283 15.3935 922.169 15.3935V34.333ZM947.101 61.6282H951.335V44.5827C951.335 43.0972 951.186 41.9831 950.889 41.2404C950.592 40.4977 949.998 39.7178 949.106 38.9008C950.072 38.2324 950.666 37.6382 950.889 37.1183C951.186 36.5984 951.335 35.7071 951.335 34.4445V14.168C947.769 14.3908 945.987 18.9215 945.987 27.7599V29.7653H941.865V0.910354C942.979 1.0589 943.87 1.28171 944.539 1.57881C945.207 1.80163 945.95 2.2844 946.767 3.02712C948.104 2.21013 949.292 1.65308 950.332 1.35599C951.446 1.0589 952.597 0.910354 953.785 0.910354C956.311 0.910354 958.762 1.61594 961.138 3.02712C962.104 2.2844 962.884 1.80163 963.478 1.57881C964.147 1.28171 965.001 1.0589 966.04 0.910354V29.7653H962.03V27.7599C962.03 18.9215 960.247 14.3908 956.682 14.168V34.4445C956.682 35.7071 956.794 36.5984 957.016 37.1183C957.313 37.6382 957.908 38.2324 958.799 38.9008C957.982 39.7178 957.425 40.4977 957.128 41.2404C956.831 41.9831 956.682 43.0972 956.682 44.5827V61.6282H960.804V76.7799C959.542 76.6313 958.502 76.4456 957.685 76.2228C956.868 76 955.717 75.4801 954.231 74.6631C953.563 75.1087 952.968 75.443 952.449 75.6658C951.929 75.8886 951.409 76.0743 950.889 76.2228C950.369 76.3714 949.812 76.4828 949.218 76.557C948.698 76.6313 947.992 76.7056 947.101 76.7799V61.6282ZM969.499 61.6282H973.287V42.3545C973.287 41.0919 973.139 40.1263 972.842 39.4579C972.545 38.7894 971.913 38.121 970.948 37.4525C972.507 35.8928 973.287 34.1845 973.287 32.3277V15.3935H969.499V0.910354H970.391C971.43 0.910354 972.322 1.0589 973.064 1.35599C973.881 1.65308 974.884 2.21013 976.073 3.02712C977.112 2.21013 978.004 1.65308 978.746 1.35599C979.489 1.0589 980.492 0.910354 981.754 0.910354L988.773 52.1585L996.238 0.910354C997.649 0.984626 998.763 1.17031 999.58 1.4674C1000.47 1.69022 1001.51 2.21013 1002.7 3.02712C1003.81 2.21013 1004.7 1.69022 1005.37 1.4674C1006.04 1.17031 1006.9 0.984626 1007.94 0.910354V15.3935H1004.15V32.6619C1004.15 34.1474 1004.3 35.2615 1004.59 36.0042C1004.89 36.6726 1005.52 37.3411 1006.49 38.0095C1005.45 38.9751 1004.78 39.8292 1004.48 40.5719C1004.26 41.3147 1004.15 42.4288 1004.15 43.9142V61.6282H1007.94V76.7799C1006.38 76.7799 1005.11 76.6313 1004.15 76.3342C1003.26 76.1114 1002.29 75.5915 1001.25 74.7745C1000.21 75.5172 999.283 76 998.466 76.2228C997.649 76.5199 996.572 76.7056 995.235 76.7799V61.6282H998.911V16.7304L990.444 76.7799H986.322L978.635 16.7304V61.6282H982.423V76.7799C980.789 76.557 979.563 76.2971 978.746 76C977.929 75.7772 977.038 75.3687 976.073 74.7745C974.81 75.5172 973.77 76 972.953 76.2228C972.136 76.4456 970.985 76.6313 969.499 76.7799V61.6282ZM1010.5 61.6282H1013.84L1015.84 45.3625C1015.99 44.9169 1016.07 44.5084 1016.07 44.137C1016.07 43.7657 1016.07 43.3943 1016.07 43.0229C1016.07 42.2059 1015.88 41.5004 1015.51 40.9062C1015.21 40.312 1014.65 39.6064 1013.84 38.7894C1014.88 38.1952 1015.58 37.601 1015.95 37.0069C1016.33 36.3384 1016.66 35.2615 1016.96 33.776L1019.97 15.3935H1016.85V1.02176H1018.07C1019.63 1.02176 1020.86 1.20744 1021.75 1.57881C1022.64 1.8759 1023.57 2.47008 1024.53 3.36135C1025.72 2.47008 1026.72 1.83876 1027.54 1.4674C1028.43 1.09604 1029.32 0.910354 1030.21 0.910354C1030.36 0.910354 1030.55 0.910354 1030.77 0.910354C1031.07 0.910354 1031.37 0.94749 1031.66 1.02176V15.3935H1028.65L1030.77 33.776C1030.92 35.1872 1031.22 36.1899 1031.66 36.784C1032.11 37.3782 1032.96 38.0467 1034.23 38.7894C1033.26 39.6064 1032.59 40.3863 1032.22 41.129C1031.92 41.8717 1031.77 42.763 1031.77 43.8028C1031.77 44.397 1031.81 44.8426 1031.89 45.1397L1034.23 61.6282H1037.57V76.7799C1036.23 76.6313 1035.19 76.4456 1034.45 76.2228C1033.71 76 1032.85 75.4801 1031.89 74.6631C1030.85 75.4801 1029.92 76 1029.1 76.2228C1028.36 76.5199 1027.24 76.7056 1025.76 76.7799V61.6282H1029.21L1027.54 47.1451H1020.52L1018.74 61.6282H1022.19V76.7799C1021 76.7056 1020.08 76.5199 1019.41 76.2228C1018.74 76 1017.81 75.4801 1016.62 74.6631C1015.36 75.5544 1014.39 76.1114 1013.73 76.3342C1013.13 76.6313 1012.31 76.7799 1011.28 76.7799H1010.5V61.6282ZM1026.65 41.0176L1024.09 21.6324L1021.41 41.0176H1026.65ZM1039.89 61.6282H1043.68V44.0256C1043.68 42.8373 1043.49 41.9089 1043.12 41.2404C1042.75 40.4977 1042.01 39.7178 1040.89 38.9008C1041.93 38.1581 1042.64 37.4525 1043.01 36.784C1043.46 36.1156 1043.68 35.1872 1043.68 33.9988V15.3935H1039.89V0.910354C1041.45 0.984626 1042.57 1.13317 1043.23 1.35599C1043.9 1.50453 1044.72 1.8759 1045.68 2.47008C1046.28 2.09872 1046.72 1.83876 1047.02 1.69021C1047.39 1.4674 1047.99 1.20745 1048.8 0.910354L1058.61 48.2592V15.3935H1055.27V0.910354C1056.9 0.984626 1058.2 1.20744 1059.17 1.57881C1060.13 1.95017 1061.1 2.65576 1062.06 3.69558C1063.03 2.73003 1063.88 2.06158 1064.62 1.69021C1065.44 1.31885 1066.44 1.0589 1067.63 0.910354V15.3935H1063.84V32.7733C1063.84 33.7389 1063.84 34.5187 1063.84 35.1129C1063.92 35.7071 1064.03 36.227 1064.18 36.6726C1064.4 37.044 1064.66 37.4154 1064.96 37.7867C1065.26 38.0838 1065.7 38.4552 1066.3 38.9008C1065.26 39.8664 1064.59 40.7205 1064.29 41.4632C1063.99 42.1317 1063.84 43.2086 1063.84 44.6941V76.6685H1058.61L1049.03 27.2029V61.6282H1052.7V76.6685C1051.29 76.6685 1050.14 76.4828 1049.25 76.1114C1048.43 75.74 1047.54 75.0345 1046.58 73.9946C1045.61 75.0345 1044.68 75.74 1043.79 76.1114C1042.97 76.557 1041.93 76.7799 1040.67 76.7799C1040.37 76.7799 1040.11 76.7427 1039.89 76.6685V61.6282ZM1092.51 28.7626H1086.94V20.7412C1086.94 15.9134 1085.53 13.4996 1082.71 13.4996C1081.3 13.4996 1080.22 14.1309 1079.48 15.3935C1078.74 16.6562 1078.37 18.4387 1078.37 20.7412V31.325C1078.37 32.4391 1078.4 33.3675 1078.48 34.1102C1078.55 34.7787 1078.7 35.3357 1078.92 35.7814C1079.15 36.227 1079.44 36.6355 1079.81 37.0069C1080.26 37.304 1080.85 37.601 1081.6 37.8981C1080.33 38.5666 1079.48 39.3093 1079.03 40.1263C1078.59 40.869 1078.37 42.0203 1078.37 43.58V55.6122C1078.37 56.4292 1078.44 57.4318 1078.59 58.6202C1078.74 59.7343 1078.89 60.5513 1079.03 61.0712C1079.26 61.7397 1079.7 62.3338 1080.37 62.8537C1081.11 63.2994 1081.89 63.5222 1082.71 63.5222C1085.53 63.5222 1086.94 61.4797 1086.94 57.3947V48.9276H1092.51V62.9652C1092.51 67.8671 1091.7 71.4694 1090.06 73.7718C1088.5 76 1085.94 77.1141 1082.38 77.1141C1080.74 77.1141 1079.22 76.7799 1077.81 76.1114C1076.47 75.443 1075.47 74.5888 1074.8 73.549C1074.06 72.2864 1073.5 70.6152 1073.13 68.5356C1072.83 66.456 1072.68 63.6336 1072.68 60.0685V44.5827C1072.68 43.4686 1072.65 42.5773 1072.57 41.9089C1072.5 41.2404 1072.39 40.6834 1072.24 40.2377C1072.09 39.7178 1071.83 39.3093 1071.46 39.0122C1071.09 38.6409 1070.64 38.2695 1070.12 37.8981C1071.16 37.0811 1071.83 36.3013 1072.13 35.5585C1072.5 34.8158 1072.68 33.6275 1072.68 31.9935V13.4996C1072.68 9.41457 1073.43 6.25798 1074.91 4.0298C1076.47 1.72735 1078.63 0.576125 1081.37 0.576125C1082.49 0.576125 1083.42 0.798944 1084.16 1.24458C1084.98 1.69022 1085.9 2.54435 1086.94 3.80699C1087.84 2.6929 1088.65 1.91303 1089.4 1.4674C1090.21 1.02176 1091.25 0.724673 1092.51 0.576125V28.7626ZM1097.6 46.031C1097.6 44.6941 1097.56 43.58 1097.48 42.6887C1097.41 41.7974 1097.3 41.0919 1097.15 40.5719C1097 39.9778 1096.74 39.5321 1096.37 39.235C1096.07 38.8637 1095.67 38.4923 1095.15 38.121C1095.67 37.6753 1096.07 37.2668 1096.37 36.8955C1096.74 36.5241 1097 36.0785 1097.15 35.5585C1097.37 35.0386 1097.48 34.3702 1097.48 33.5532C1097.56 32.7362 1097.6 31.6964 1097.6 30.4337V14.9479C1097.6 9.7488 1098.38 6.0723 1099.94 3.9184C1101.5 1.69022 1104.17 0.576125 1107.96 0.576125C1111.75 0.576125 1114.38 1.65308 1115.87 3.80699C1117.43 5.9609 1118.21 9.63739 1118.21 14.8365V30.8794C1118.21 32.2163 1118.21 33.2561 1118.21 33.9988C1118.28 34.7415 1118.39 35.3729 1118.54 35.8928C1118.69 36.3384 1118.91 36.7098 1119.21 37.0069C1119.51 37.304 1119.92 37.6753 1120.44 38.121C1119.54 38.9379 1118.95 39.6807 1118.65 40.3491C1118.36 41.0176 1118.21 41.9831 1118.21 43.2458V61.294C1118.21 64.7106 1117.98 67.3101 1117.54 69.0926C1117.17 70.8752 1116.46 72.3978 1115.42 73.6604C1114.6 74.7745 1113.49 75.6286 1112.08 76.2228C1110.67 76.817 1109.15 77.1141 1107.51 77.1141C1105.8 77.1141 1104.21 76.7427 1102.72 76C1101.24 75.3315 1100.12 74.4031 1099.38 73.2148C1098.71 72.1007 1098.23 70.7266 1097.93 69.0926C1097.71 67.3844 1097.6 64.9705 1097.6 61.8511V46.031ZM1103.28 32.5505C1103.28 34.036 1103.39 35.15 1103.61 35.8928C1103.91 36.6355 1104.47 37.3782 1105.28 38.121C1104.47 38.7894 1103.91 39.495 1103.61 40.2377C1103.39 40.9062 1103.28 42.0945 1103.28 43.8028V56.392C1103.28 58.1003 1103.69 59.4743 1104.5 60.5142C1105.32 61.4797 1106.43 61.9625 1107.85 61.9625C1109.33 61.9625 1110.48 61.4054 1111.3 60.2913C1112.12 59.1772 1112.53 57.6175 1112.53 55.6122V43.2458C1112.53 41.7603 1112.38 40.6834 1112.08 40.0149C1111.78 39.3464 1111.19 38.7151 1110.3 38.121C1111.26 37.3782 1111.86 36.6726 1112.08 36.0042C1112.38 35.2615 1112.53 33.9245 1112.53 31.9935V20.4069C1112.53 16.2477 1111 14.168 1107.96 14.168C1107.07 14.168 1106.25 14.3908 1105.51 14.8365C1104.76 15.2078 1104.21 15.7277 1103.84 16.3962C1103.61 16.8418 1103.46 17.3246 1103.39 17.8445C1103.32 18.3644 1103.28 19.2928 1103.28 20.6297V32.5505ZM1123.01 61.6282H1126.8V43.58C1126.8 42.1688 1126.62 41.0919 1126.24 40.3491C1125.95 39.5321 1125.39 38.7151 1124.57 37.8981C1125.09 37.4525 1125.5 37.0811 1125.8 36.784C1126.1 36.4127 1126.32 36.0413 1126.47 35.67C1126.62 35.2986 1126.69 34.853 1126.69 34.333C1126.76 33.7389 1126.8 32.9961 1126.8 32.1049V15.3935H1123.01V0.910354C1124.87 1.0589 1126.17 1.28171 1126.91 1.57881C1127.73 1.8759 1128.62 2.47008 1129.59 3.36135C1130.7 2.47008 1131.67 1.8759 1132.48 1.57881C1133.3 1.20744 1134.41 0.984626 1135.83 0.910354V15.3935H1132.15V31.7706C1132.15 32.8847 1132.15 33.776 1132.15 34.4445C1132.15 35.0386 1132.19 35.5585 1132.26 36.0042C1132.41 36.3755 1132.59 36.7098 1132.82 37.0069C1133.11 37.2297 1133.49 37.5268 1133.93 37.8981C1133.49 38.418 1133.15 38.8265 1132.93 39.1236C1132.71 39.4207 1132.52 39.7549 1132.37 40.1263C1132.3 40.4977 1132.22 40.9804 1132.15 41.5746C1132.15 42.0945 1132.15 42.8001 1132.15 43.6914V61.6282H1135.83V76.7799C1134.56 76.7056 1133.52 76.4828 1132.71 76.1114C1131.89 75.8143 1130.85 75.183 1129.59 74.2175C1128.55 75.2573 1127.62 75.9257 1126.8 76.2228C1126.06 76.5942 1125.06 76.7799 1123.79 76.7799H1123.01V61.6282ZM1139.33 61.6282H1143.12V44.0256C1143.12 42.8373 1142.93 41.9089 1142.56 41.2404C1142.19 40.4977 1141.45 39.7178 1140.34 38.9008C1141.38 38.1581 1142.08 37.4525 1142.45 36.784C1142.9 36.1156 1143.12 35.1872 1143.12 33.9988V15.3935H1139.33V0.910354C1140.89 0.984626 1142.01 1.13317 1142.68 1.35599C1143.34 1.50453 1144.16 1.8759 1145.13 2.47008C1145.72 2.09872 1146.17 1.83876 1146.46 1.69021C1146.83 1.4674 1147.43 1.20745 1148.25 0.910354L1158.05 48.2592V15.3935H1154.71V0.910354C1156.34 0.984626 1157.64 1.20744 1158.61 1.57881C1159.57 1.95017 1160.54 2.65576 1161.5 3.69558C1162.47 2.73003 1163.32 2.06158 1164.07 1.69021C1164.88 1.31885 1165.89 1.0589 1167.07 0.910354V15.3935H1163.29V32.7733C1163.29 33.7389 1163.29 34.5187 1163.29 35.1129C1163.36 35.7071 1163.47 36.227 1163.62 36.6726C1163.84 37.044 1164.1 37.4154 1164.4 37.7867C1164.7 38.0838 1165.14 38.4552 1165.74 38.9008C1164.7 39.8664 1164.03 40.7205 1163.73 41.4632C1163.43 42.1317 1163.29 43.2086 1163.29 44.6941V76.6685H1158.05L1148.47 27.2029V61.6282H1152.14V76.6685C1150.73 76.6685 1149.58 76.4828 1148.69 76.1114C1147.87 75.74 1146.98 75.0345 1146.02 73.9946C1145.05 75.0345 1144.12 75.74 1143.23 76.1114C1142.42 76.557 1141.38 76.7799 1140.11 76.7799C1139.82 76.7799 1139.56 76.7427 1139.33 76.6685V61.6282ZM228.818 153.628H233.051V136.583C233.051 135.097 232.903 133.983 232.606 133.24C232.309 132.498 231.714 131.718 230.823 130.901C231.789 130.232 232.383 129.638 232.606 129.118C232.903 128.598 233.051 127.707 233.051 126.444V106.168C229.486 106.391 227.704 110.921 227.704 119.76V121.765H223.582V92.9104C224.696 93.0589 225.587 93.2817 226.255 93.5788C226.924 93.8016 227.667 94.2844 228.484 95.0271C229.82 94.2101 231.009 93.6531 232.049 93.356C233.163 93.0589 234.314 92.9104 235.502 92.9104C238.028 92.9104 240.479 93.6159 242.855 95.0271C243.821 94.2844 244.601 93.8016 245.195 93.5788C245.863 93.2817 246.718 93.0589 247.757 92.9104V121.765H243.747V119.76C243.747 110.921 241.964 106.391 238.399 106.168V126.444C238.399 127.707 238.51 128.598 238.733 129.118C239.03 129.638 239.624 130.232 240.516 130.901C239.699 131.718 239.142 132.498 238.845 133.24C238.548 133.983 238.399 135.097 238.399 136.583V153.628H242.521V168.78C241.258 168.631 240.219 168.446 239.402 168.223C238.585 168 237.433 167.48 235.948 166.663C235.28 167.109 234.685 167.443 234.165 167.666C233.646 167.889 233.126 168.074 232.606 168.223C232.086 168.371 231.529 168.483 230.935 168.557C230.415 168.631 229.709 168.706 228.818 168.78V153.628ZM250.325 153.628H253.667L255.673 137.363C255.821 136.917 255.895 136.508 255.895 136.137C255.895 135.766 255.895 135.394 255.895 135.023C255.895 134.206 255.71 133.5 255.338 132.906C255.041 132.312 254.484 131.606 253.667 130.789C254.707 130.195 255.413 129.601 255.784 129.007C256.155 128.338 256.49 127.261 256.787 125.776L259.795 107.394H256.675V93.0218H257.901C259.461 93.0218 260.686 93.2074 261.577 93.5788C262.469 93.8759 263.397 94.4701 264.362 95.3614C265.551 94.4701 266.554 93.8388 267.371 93.4674C268.262 93.096 269.153 92.9104 270.044 92.9104C270.193 92.9104 270.379 92.9104 270.601 92.9104C270.898 92.9104 271.196 92.9475 271.493 93.0218V107.394H268.485L270.601 125.776C270.75 127.187 271.047 128.19 271.493 128.784C271.938 129.378 272.792 130.047 274.055 130.789C273.09 131.606 272.421 132.386 272.05 133.129C271.753 133.872 271.604 134.763 271.604 135.803C271.604 136.397 271.641 136.843 271.715 137.14L274.055 153.628H277.397V168.78C276.06 168.631 275.021 168.446 274.278 168.223C273.535 168 272.681 167.48 271.715 166.663C270.676 167.48 269.747 168 268.93 168.223C268.188 168.52 267.073 168.706 265.588 168.78V153.628H269.042L267.371 139.145H260.352L258.569 153.628H262.023V168.78C260.835 168.706 259.906 168.52 259.238 168.223C258.569 168 257.641 167.48 256.452 166.663C255.19 167.554 254.224 168.111 253.556 168.334C252.962 168.631 252.145 168.78 251.105 168.78H250.325V153.628ZM266.479 133.018L263.917 113.632L261.243 133.018H266.479ZM279.721 153.628H283.509V135.469C283.509 134.354 283.472 133.5 283.398 132.906C283.398 132.312 283.323 131.829 283.175 131.458C283.101 131.086 282.915 130.789 282.618 130.567C282.395 130.344 282.024 130.047 281.504 129.675C281.949 129.304 282.321 129.007 282.618 128.784C282.915 128.487 283.101 128.153 283.175 127.781C283.323 127.336 283.398 126.816 283.398 126.222C283.472 125.553 283.509 124.662 283.509 123.548V107.394H279.721V92.9104H280.835C281.949 92.9104 282.878 93.0589 283.621 93.356C284.438 93.6531 285.292 94.2101 286.183 95.0271C287.223 94.2844 288.114 93.8016 288.857 93.5788C289.674 93.2817 290.825 93.0589 292.31 92.9104V107.394H288.857V124.662L298.215 107.394H295.319V92.9104H295.987C297.101 92.9104 298.067 93.096 298.884 93.4674C299.775 93.7645 300.74 94.2844 301.78 95.0271C303.043 94.2101 304.083 93.6531 304.9 93.356C305.717 93.0589 306.757 92.9104 308.019 92.9104V107.394H304.565L294.316 125.108L305.68 153.628H309.022V168.78C307.759 168.78 306.719 168.594 305.902 168.223C305.16 167.926 304.194 167.257 303.006 166.217C301.743 167.257 300.703 167.926 299.886 168.223C299.144 168.594 297.955 168.78 296.321 168.78V153.628H299.441L290.751 131.903L288.857 135.469V153.628H292.31V168.78C291.048 168.706 290.008 168.483 289.191 168.111C288.448 167.814 287.446 167.183 286.183 166.217C285.143 167.257 284.215 167.926 283.398 168.223C282.581 168.594 281.541 168.78 280.278 168.78H279.721V153.628ZM312.034 153.628H315.822V136.026C315.822 134.614 315.636 133.575 315.265 132.906C314.968 132.238 314.262 131.384 313.148 130.344C314.262 129.527 314.968 128.784 315.265 128.116C315.636 127.373 315.822 126.184 315.822 124.551V107.394H312.034V92.9104C313.371 92.9104 314.411 93.0589 315.154 93.356C315.971 93.5788 316.973 94.0987 318.162 94.9157C319.424 94.173 320.464 93.6531 321.281 93.356C322.172 93.0589 323.064 92.9104 323.955 92.9104C324.846 92.9104 325.738 93.0589 326.629 93.356C327.52 93.6531 328.597 94.173 329.86 94.9157C330.38 94.5444 330.825 94.2473 331.197 94.0244C331.642 93.7274 332.051 93.5045 332.422 93.356C332.868 93.2074 333.313 93.096 333.759 93.0218C334.279 92.9475 334.91 92.9104 335.653 92.9104V121.877H331.308V119.314C331.308 116.715 331.159 114.635 330.862 113.075C330.565 111.516 330.045 110.253 329.303 109.287C328.708 108.47 328.003 107.951 327.186 107.728C326.443 107.505 325.106 107.394 323.175 107.394H321.281V127.336H329.86V134.132H321.281V153.628H322.952C325.106 153.628 326.629 153.48 327.52 153.183C328.486 152.811 329.265 152.106 329.86 151.066C330.825 149.58 331.308 147.241 331.308 144.047V141.15H335.653V168.78C334.465 168.706 333.499 168.52 332.756 168.223C332.014 167.926 331.122 167.332 330.082 166.44C328.077 168 326.109 168.78 324.178 168.78C323.064 168.78 322.024 168.594 321.058 168.223C320.167 167.851 319.202 167.257 318.162 166.44C316.973 167.406 316.008 168 315.265 168.223C314.597 168.52 313.52 168.706 312.034 168.78V153.628ZM339.793 140.482H344.695V147.167C344.695 150.286 345.03 152.477 345.698 153.74C346.366 154.928 347.555 155.522 349.263 155.522C352.308 155.522 353.831 152.811 353.831 147.389C353.831 145.458 353.534 143.601 352.94 141.819C352.42 139.962 351.491 137.845 350.154 135.469C349.56 134.354 348.817 133.5 347.926 132.906C347.035 132.238 346.144 131.941 345.252 132.015H344.695C344.992 131.421 345.178 130.975 345.252 130.678C345.327 130.307 345.364 129.972 345.364 129.675C345.364 128.933 344.955 127.93 344.138 126.667C343.247 125.256 342.504 123.919 341.91 122.657C341.316 121.394 340.833 120.02 340.462 118.534C340.165 117.049 339.942 115.415 339.793 113.632C339.645 111.776 339.571 109.585 339.571 107.059C339.571 104.237 339.719 102.046 340.016 100.486C340.388 98.8522 341.019 97.4038 341.91 96.1412C342.653 95.1014 343.581 94.2473 344.695 93.5788C345.884 92.9104 347.109 92.5761 348.372 92.5761C349.263 92.5761 350.117 92.7618 350.934 93.1332C351.751 93.4303 352.791 94.0987 354.054 95.1385C354.871 94.173 355.576 93.5417 356.17 93.2446C356.839 92.8732 357.582 92.6504 358.399 92.5761V122.657H353.162V114.189C353.162 111.664 352.865 109.882 352.271 108.842C351.677 107.728 350.637 107.171 349.152 107.171C347.963 107.171 346.998 107.616 346.255 108.508C345.587 109.325 345.252 110.439 345.252 111.85C345.252 113.855 345.475 115.712 345.921 117.42C346.366 119.054 347.183 121.023 348.372 123.325C349.337 125.182 350.191 126.407 350.934 127.001C351.677 127.596 352.717 127.893 354.054 127.893C353.608 128.635 353.385 129.304 353.385 129.898C353.385 130.195 353.385 130.455 353.385 130.678C353.459 130.827 353.608 131.124 353.831 131.569C354.054 132.015 354.388 132.646 354.834 133.463C355.353 134.28 356.059 135.394 356.95 136.805C358.139 138.811 359.03 141.113 359.624 143.713C360.218 146.312 360.515 149.358 360.515 152.848C360.515 158.79 359.81 162.987 358.399 165.438C356.987 167.889 354.574 169.114 351.157 169.114C349.672 169.114 348.409 168.891 347.369 168.446C346.404 168 345.512 167.257 344.695 166.217C343.73 167.332 342.913 168.074 342.244 168.446C341.65 168.817 340.833 169.04 339.793 169.114V140.482ZM386.901 153.628H391.135V136.583C391.135 135.097 390.986 133.983 390.689 133.24C390.392 132.498 389.798 131.718 388.906 130.901C389.872 130.232 390.466 129.638 390.689 129.118C390.986 128.598 391.135 127.707 391.135 126.444V106.168C387.57 106.391 385.787 110.921 385.787 119.76V121.765H381.665V92.9104C382.779 93.0589 383.67 93.2817 384.339 93.5788C385.007 93.8016 385.75 94.2844 386.567 95.0271C387.904 94.2101 389.092 93.6531 390.132 93.356C391.246 93.0589 392.397 92.9104 393.586 92.9104C396.111 92.9104 398.562 93.6159 400.939 95.0271C401.904 94.2844 402.684 93.8016 403.278 93.5788C403.947 93.2817 404.801 93.0589 405.841 92.9104V121.765H401.83V119.76C401.83 110.921 400.047 106.391 396.482 106.168V126.444C396.482 127.707 396.594 128.598 396.816 129.118C397.114 129.638 397.708 130.232 398.599 130.901C397.782 131.718 397.225 132.498 396.928 133.24C396.631 133.983 396.482 135.097 396.482 136.583V153.628H400.604V168.78C399.342 168.631 398.302 168.446 397.485 168.223C396.668 168 395.517 167.48 394.031 166.663C393.363 167.109 392.769 167.443 392.249 167.666C391.729 167.889 391.209 168.074 390.689 168.223C390.169 168.371 389.612 168.483 389.018 168.557C388.498 168.631 387.792 168.706 386.901 168.78V153.628ZM409.968 92.9104C411.231 92.9104 412.308 93.096 413.199 93.4674C414.09 93.8388 415.056 94.5444 416.095 95.5842C417.135 94.5444 418.027 93.8759 418.769 93.5788C419.586 93.2074 420.626 92.9846 421.889 92.9104V107.394H418.546V126.89H428.016V107.394H424.563V92.9104H425.12C426.382 92.9104 427.422 93.096 428.239 93.4674C429.056 93.8388 430.022 94.5444 431.136 95.5842C431.953 94.6929 432.77 94.0616 433.587 93.6902C434.404 93.3189 435.592 93.0589 437.152 92.9104V107.394H433.364V125.442C433.364 126.259 433.364 126.927 433.364 127.447C433.438 127.893 433.512 128.264 433.587 128.561C433.735 128.858 433.921 129.118 434.144 129.341C434.441 129.564 434.812 129.824 435.258 130.121C433.995 131.532 433.364 133.129 433.364 134.912V153.628H437.152V168.78C435.666 168.78 434.441 168.631 433.475 168.334C432.584 168.111 431.581 167.592 430.467 166.775C429.65 167.443 428.833 167.889 428.016 168.111C427.199 168.408 426.048 168.631 424.563 168.78V153.628H427.682V133.575H418.546V153.628H421.889V168.78C420.403 168.483 419.252 168.223 418.435 168C417.618 167.777 416.69 167.406 415.65 166.886C414.61 167.48 413.644 167.889 412.753 168.111C411.936 168.408 410.785 168.631 409.299 168.78V153.628H413.087V134.243C413.087 132.312 412.382 130.752 410.971 129.564C411.788 128.747 412.345 127.967 412.642 127.224C412.939 126.482 413.087 125.293 413.087 123.659V107.394H409.299V92.9104H409.968ZM440.633 153.628H444.421V136.026C444.421 134.614 444.235 133.575 443.864 132.906C443.567 132.238 442.861 131.384 441.747 130.344C442.861 129.527 443.567 128.784 443.864 128.116C444.235 127.373 444.421 126.184 444.421 124.551V107.394H440.633V92.9104C441.97 92.9104 443.01 93.0589 443.753 93.356C444.57 93.5788 445.572 94.0987 446.761 94.9157C448.023 94.173 449.063 93.6531 449.88 93.356C450.771 93.0589 451.663 92.9104 452.554 92.9104C453.445 92.9104 454.337 93.0589 455.228 93.356C456.119 93.6531 457.196 94.173 458.459 94.9157C458.979 94.5444 459.424 94.2473 459.796 94.0244C460.241 93.7274 460.65 93.5045 461.021 93.356C461.467 93.2074 461.912 93.096 462.358 93.0218C462.878 92.9475 463.509 92.9104 464.252 92.9104V121.877H459.907V119.314C459.907 116.715 459.758 114.635 459.461 113.075C459.164 111.516 458.644 110.253 457.902 109.287C457.307 108.47 456.602 107.951 455.785 107.728C455.042 107.505 453.705 107.394 451.774 107.394H449.88V127.336H458.459V134.132H449.88V153.628H451.551C453.705 153.628 455.228 153.48 456.119 153.183C457.085 152.811 457.864 152.106 458.459 151.066C459.424 149.58 459.907 147.241 459.907 144.047V141.15H464.252V168.78C463.064 168.706 462.098 168.52 461.355 168.223C460.613 167.926 459.721 167.332 458.681 166.44C456.676 168 454.708 168.78 452.777 168.78C451.663 168.78 450.623 168.594 449.657 168.223C448.766 167.851 447.801 167.257 446.761 166.44C445.572 167.406 444.607 168 443.864 168.223C443.196 168.52 442.119 168.706 440.633 168.78V153.628ZM485.24 153.628H489.028V135.58C489.028 134.169 488.843 133.092 488.471 132.349C488.174 131.532 487.617 130.715 486.8 129.898C487.32 129.452 487.728 129.081 488.026 128.784C488.323 128.413 488.545 128.041 488.694 127.67C488.843 127.299 488.917 126.853 488.917 126.333C488.991 125.739 489.028 124.996 489.028 124.105V107.394H485.24V92.9104C487.097 93.0589 488.397 93.2817 489.14 93.5788C489.957 93.8759 490.848 94.4701 491.813 95.3614C492.928 94.4701 493.893 93.8759 494.71 93.5788C495.527 93.2074 496.641 92.9846 498.052 92.9104V107.394H494.376V123.771C494.376 124.885 494.376 125.776 494.376 126.444C494.376 127.039 494.413 127.559 494.487 128.004C494.636 128.376 494.822 128.71 495.044 129.007C495.341 129.23 495.713 129.527 496.158 129.898C495.713 130.418 495.379 130.827 495.156 131.124C494.933 131.421 494.747 131.755 494.599 132.126C494.524 132.498 494.45 132.98 494.376 133.575C494.376 134.095 494.376 134.8 494.376 135.691V153.628H498.052V168.78C496.79 168.706 495.75 168.483 494.933 168.111C494.116 167.814 493.076 167.183 491.813 166.217C490.774 167.257 489.845 167.926 489.028 168.223C488.286 168.594 487.283 168.78 486.02 168.78H485.24V153.628ZM501.56 153.628H505.348V136.026C505.348 134.837 505.162 133.909 504.791 133.24C504.42 132.498 503.677 131.718 502.563 130.901C503.603 130.158 504.308 129.452 504.68 128.784C505.125 128.116 505.348 127.187 505.348 125.999V107.394H501.56V92.9104C503.12 92.9846 504.234 93.1332 504.902 93.356C505.571 93.5045 506.388 93.8759 507.353 94.4701C507.947 94.0987 508.393 93.8388 508.69 93.6902C509.062 93.4674 509.656 93.2074 510.473 92.9104L520.277 140.259V107.394H516.934V92.9104C518.568 92.9846 519.868 93.2074 520.834 93.5788C521.799 93.9502 522.765 94.6558 523.73 95.6956C524.696 94.73 525.55 94.0616 526.293 93.6902C527.11 93.3189 528.113 93.0589 529.301 92.9104V107.394H525.513V124.773C525.513 125.739 525.513 126.519 525.513 127.113C525.587 127.707 525.699 128.227 525.847 128.673C526.07 129.044 526.33 129.415 526.627 129.787C526.924 130.084 527.37 130.455 527.964 130.901C526.924 131.866 526.256 132.72 525.959 133.463C525.662 134.132 525.513 135.209 525.513 136.694V168.668H520.277L510.696 119.203V153.628H514.372V168.668C512.961 168.668 511.81 168.483 510.918 168.111C510.101 167.74 509.21 167.034 508.245 165.995C507.279 167.034 506.351 167.74 505.459 168.111C504.642 168.557 503.603 168.78 502.34 168.78C502.043 168.78 501.783 168.743 501.56 168.668V153.628ZM537.695 153.628H541.928V136.583C541.928 135.097 541.78 133.983 541.483 133.24C541.186 132.498 540.591 131.718 539.7 130.901C540.666 130.232 541.26 129.638 541.483 129.118C541.78 128.598 541.928 127.707 541.928 126.444V106.168C538.363 106.391 536.581 110.921 536.581 119.76V121.765H532.459V92.9104C533.573 93.0589 534.464 93.2817 535.132 93.5788C535.801 93.8016 536.544 94.2844 537.361 95.0271C538.698 94.2101 539.886 93.6531 540.926 93.356C542.04 93.0589 543.191 92.9104 544.379 92.9104C546.905 92.9104 549.356 93.6159 551.732 95.0271C552.698 94.2844 553.478 93.8016 554.072 93.5788C554.74 93.2817 555.595 93.0589 556.634 92.9104V121.765H552.624V119.76C552.624 110.921 550.841 106.391 547.276 106.168V126.444C547.276 127.707 547.387 128.598 547.61 129.118C547.907 129.638 548.502 130.232 549.393 130.901C548.576 131.718 548.019 132.498 547.722 133.24C547.425 133.983 547.276 135.097 547.276 136.583V153.628H551.398V168.78C550.136 168.631 549.096 168.446 548.279 168.223C547.462 168 546.31 167.48 544.825 166.663C544.157 167.109 543.562 167.443 543.042 167.666C542.523 167.889 542.003 168.074 541.483 168.223C540.963 168.371 540.406 168.483 539.812 168.557C539.292 168.631 538.586 168.706 537.695 168.78V153.628ZM560.093 153.628H563.881V136.026C563.881 134.614 563.695 133.575 563.324 132.906C563.027 132.238 562.321 131.384 561.207 130.344C562.321 129.527 563.027 128.784 563.324 128.116C563.695 127.373 563.881 126.184 563.881 124.551V107.394H560.093V92.9104C561.43 92.9104 562.47 93.0589 563.213 93.356C564.03 93.5788 565.032 94.0987 566.221 94.9157C567.483 94.173 568.523 93.6531 569.34 93.356C570.231 93.0589 571.123 92.9104 572.014 92.9104C572.905 92.9104 573.797 93.0589 574.688 93.356C575.579 93.6531 576.656 94.173 577.919 94.9157C578.439 94.5444 578.884 94.2473 579.256 94.0244C579.701 93.7274 580.11 93.5045 580.481 93.356C580.927 93.2074 581.372 93.096 581.818 93.0218C582.338 92.9475 582.969 92.9104 583.712 92.9104V121.877H579.367V119.314C579.367 116.715 579.218 114.635 578.921 113.075C578.624 111.516 578.104 110.253 577.362 109.287C576.767 108.47 576.062 107.951 575.245 107.728C574.502 107.505 573.165 107.394 571.234 107.394H569.34V127.336H577.919V134.132H569.34V153.628H571.011C573.165 153.628 574.688 153.48 575.579 153.183C576.545 152.811 577.325 152.106 577.919 151.066C578.884 149.58 579.367 147.241 579.367 144.047V141.15H583.712V168.78C582.524 168.706 581.558 168.52 580.815 168.223C580.073 167.926 579.181 167.332 578.142 166.44C576.136 168 574.168 168.78 572.237 168.78C571.123 168.78 570.083 168.594 569.117 168.223C568.226 167.851 567.261 167.257 566.221 166.44C565.032 167.406 564.067 168 563.324 168.223C562.656 168.52 561.579 168.706 560.093 168.78V153.628ZM587.184 92.9104C588.372 93.0589 589.264 93.2817 589.858 93.5788C590.526 93.8759 591.232 94.3958 591.974 95.1385C593.237 94.3215 594.425 93.7645 595.54 93.4674C596.654 93.096 598.065 92.9104 599.773 92.9104C602.298 92.9104 604.304 93.356 605.789 94.2473C607.349 95.0643 608.537 96.4383 609.354 98.3694C609.577 98.9636 609.763 99.5578 609.911 100.152C610.134 100.672 610.283 101.34 610.357 102.157C610.431 102.974 610.468 103.977 610.468 105.165C610.543 106.279 610.58 107.691 610.58 109.399C610.654 110.81 610.803 111.813 611.025 112.407C611.323 113.001 611.954 113.632 612.919 114.301C612.102 114.969 611.545 115.638 611.248 116.306C610.951 116.9 610.803 117.903 610.803 119.314C610.877 122.582 610.617 124.922 610.023 126.333C609.503 127.744 608.463 128.784 606.903 129.452C609.726 131.086 611.137 133.575 611.137 136.917V153.628H614.925V168.668H613.254C612.14 168.668 611.1 168.483 610.134 168.111C609.169 167.74 608.389 167.22 607.795 166.552C607.349 166.032 606.978 165.549 606.68 165.103C606.458 164.658 606.272 164.064 606.123 163.321C605.975 162.578 605.863 161.613 605.789 160.424C605.789 159.236 605.789 157.676 605.789 155.745V140.259C605.789 137.288 605.344 135.32 604.452 134.354C603.561 133.315 601.816 132.795 599.216 132.795H596.319V153.628H600.107V168.78C598.696 168.78 597.582 168.631 596.765 168.334C595.948 168.037 595.02 167.406 593.98 166.44C593.089 167.257 592.16 167.814 591.195 168.111C590.303 168.483 588.966 168.706 587.184 168.78V153.628H590.972V136.805C590.972 135.543 590.749 134.54 590.303 133.797C589.932 132.98 589.226 132.201 588.187 131.458C589.301 130.641 590.043 129.824 590.415 129.007C590.786 128.116 590.972 126.816 590.972 125.108V107.394H587.184V92.9104ZM596.319 126.333C598.325 126.333 599.885 126.259 600.999 126.11C602.187 125.887 603.078 125.442 603.672 124.773C604.341 124.105 604.749 123.102 604.898 121.765C605.046 120.428 605.121 118.646 605.121 116.418C605.121 113.447 604.935 111.367 604.564 110.179C604.192 108.99 603.45 108.211 602.336 107.839C602.113 107.765 601.853 107.691 601.556 107.616C601.333 107.542 601.036 107.505 600.664 107.505C600.293 107.431 599.736 107.394 598.993 107.394C598.325 107.394 597.434 107.394 596.319 107.394V126.333ZM617.212 153.628H621V136.026C621 134.837 620.814 133.909 620.443 133.24C620.072 132.498 619.329 131.718 618.215 130.901C619.255 130.158 619.96 129.452 620.332 128.784C620.777 128.116 621 127.187 621 125.999V107.394H617.212V92.9104C618.772 92.9846 619.886 93.1332 620.554 93.356C621.223 93.5045 622.04 93.8759 623.005 94.4701C623.6 94.0987 624.045 93.8388 624.342 93.6902C624.714 93.4674 625.308 93.2074 626.125 92.9104L635.929 140.259V107.394H632.587V92.9104C634.221 92.9846 635.52 93.2074 636.486 93.5788C637.451 93.9502 638.417 94.6558 639.382 95.6956C640.348 94.73 641.202 94.0616 641.945 93.6902C642.762 93.3189 643.765 93.0589 644.953 92.9104V107.394H641.165V124.773C641.165 125.739 641.165 126.519 641.165 127.113C641.239 127.707 641.351 128.227 641.499 128.673C641.722 129.044 641.982 129.415 642.279 129.787C642.576 130.084 643.022 130.455 643.616 130.901C642.576 131.866 641.908 132.72 641.611 133.463C641.314 134.132 641.165 135.209 641.165 136.694V168.668H635.929L626.348 119.203V153.628H630.024V168.668C628.613 168.668 627.462 168.483 626.57 168.111C625.753 167.74 624.862 167.034 623.897 165.995C622.931 167.034 622.003 167.74 621.111 168.111C620.294 168.557 619.255 168.78 617.992 168.78C617.695 168.78 617.435 168.743 617.212 168.668V153.628ZM648.111 153.628H651.899V136.026C651.899 134.614 651.713 133.575 651.342 132.906C651.044 132.238 650.339 131.384 649.225 130.344C650.339 129.527 651.044 128.784 651.342 128.116C651.713 127.373 651.899 126.184 651.899 124.551V107.394H648.111V92.9104C649.448 92.9104 650.487 93.0589 651.23 93.356C652.047 93.5788 653.05 94.0987 654.238 94.9157C655.501 94.173 656.541 93.6531 657.358 93.356C658.249 93.0589 659.14 92.9104 660.031 92.9104C660.923 92.9104 661.814 93.0589 662.705 93.356C663.597 93.6531 664.674 94.173 665.936 94.9157C666.456 94.5444 666.902 94.2473 667.273 94.0244C667.719 93.7274 668.127 93.5045 668.499 93.356C668.944 93.2074 669.39 93.096 669.835 93.0218C670.355 92.9475 670.987 92.9104 671.729 92.9104V121.877H667.384V119.314C667.384 116.715 667.236 114.635 666.939 113.075C666.642 111.516 666.122 110.253 665.379 109.287C664.785 108.47 664.079 107.951 663.262 107.728C662.52 107.505 661.183 107.394 659.252 107.394H657.358V127.336H665.936V134.132H657.358V153.628H659.029C661.183 153.628 662.705 153.48 663.597 153.183C664.562 152.811 665.342 152.106 665.936 151.066C666.902 149.58 667.384 147.241 667.384 144.047V141.15H671.729V168.78C670.541 168.706 669.576 168.52 668.833 168.223C668.09 167.926 667.199 167.332 666.159 166.44C664.154 168 662.185 168.78 660.254 168.78C659.14 168.78 658.1 168.594 657.135 168.223C656.244 167.851 655.278 167.257 654.238 166.44C653.05 167.406 652.084 168 651.342 168.223C650.673 168.52 649.596 168.706 648.111 168.78V153.628ZM680.438 153.628H684.671V136.583C684.671 135.097 684.523 133.983 684.225 133.24C683.928 132.498 683.334 131.718 682.443 130.901C683.408 130.232 684.003 129.638 684.225 129.118C684.523 128.598 684.671 127.707 684.671 126.444V106.168C681.106 106.391 679.323 110.921 679.323 119.76V121.765H675.201V92.9104C676.315 93.0589 677.207 93.2817 677.875 93.5788C678.544 93.8016 679.286 94.2844 680.103 95.0271C681.44 94.2101 682.629 93.6531 683.668 93.356C684.783 93.0589 685.934 92.9104 687.122 92.9104C689.647 92.9104 692.098 93.6159 694.475 95.0271C695.441 94.2844 696.221 93.8016 696.815 93.5788C697.483 93.2817 698.337 93.0589 699.377 92.9104V121.765H695.366V119.76C695.366 110.921 693.584 106.391 690.019 106.168V126.444C690.019 127.707 690.13 128.598 690.353 129.118C690.65 129.638 691.244 130.232 692.136 130.901C691.319 131.718 690.761 132.498 690.464 133.24C690.167 133.983 690.019 135.097 690.019 136.583V153.628H694.141V168.78C692.878 168.631 691.838 168.446 691.021 168.223C690.204 168 689.053 167.48 687.568 166.663C686.899 167.109 686.305 167.443 685.785 167.666C685.265 167.889 684.745 168.074 684.225 168.223C683.706 168.371 683.149 168.483 682.554 168.557C682.034 168.631 681.329 168.706 680.438 168.78V153.628ZM720.352 153.628H724.14V136.805C724.14 134.874 723.955 133.537 723.583 132.795C723.286 131.978 722.543 131.161 721.355 130.344C723.212 129.23 724.14 127.187 724.14 124.216V107.394H720.352V92.9104C722.061 92.9846 723.398 93.2074 724.363 93.5788C725.329 93.9502 726.331 94.73 727.371 95.9184C729.674 93.913 732.05 92.9104 734.501 92.9104C735.913 92.9104 737.324 93.2446 738.735 93.913C740.22 94.5815 741.409 95.4728 742.3 96.5868C743.117 97.5524 743.674 98.7408 743.971 100.152C744.268 101.489 744.454 103.754 744.528 106.948C744.602 108.805 744.714 110.067 744.862 110.736C745.085 111.33 745.605 111.961 746.422 112.63C746.496 112.704 746.608 112.815 746.756 112.964C746.905 113.038 747.053 113.187 747.202 113.41C746.534 114.004 746.088 114.412 745.865 114.635C745.642 114.784 745.419 115.006 745.197 115.304C745.048 115.452 744.937 115.638 744.862 115.861C744.862 116.009 744.825 116.269 744.751 116.64C744.751 116.938 744.751 117.42 744.751 118.089C744.751 118.683 744.751 119.5 744.751 120.54C744.677 125.887 742.82 128.933 739.181 129.675C740.295 130.195 741.223 130.752 741.966 131.346C742.708 131.941 743.303 132.683 743.748 133.575C744.194 134.466 744.528 135.543 744.751 136.805C744.974 138.068 745.085 139.591 745.085 141.373C745.159 143.007 745.234 144.307 745.308 145.273C745.382 146.164 745.494 146.907 745.642 147.501C745.865 148.021 746.162 148.503 746.534 148.949C746.979 149.32 747.536 149.766 748.205 150.286L747.091 151.4C746.199 152.217 745.642 152.96 745.419 153.628C745.419 153.777 745.345 154.297 745.197 155.188C745.122 156.005 745.011 157.23 744.862 158.864C744.714 160.127 744.194 161.538 743.303 163.098C742.411 164.583 741.446 165.735 740.406 166.552C738.549 168.037 736.321 168.78 733.721 168.78C732.236 168.78 730.936 168.594 729.822 168.223C728.782 167.851 727.705 167.22 726.591 166.329C725.551 167.22 724.623 167.814 723.806 168.111C722.989 168.408 721.838 168.631 720.352 168.78V153.628ZM729.599 126.444C730.268 126.593 730.788 126.667 731.159 126.667C731.605 126.667 732.013 126.667 732.385 126.667C734.836 126.667 736.618 125.887 737.732 124.328C738.846 122.768 739.403 120.243 739.403 116.752C739.403 113.187 738.883 110.736 737.844 109.399C736.878 108.062 735.021 107.394 732.273 107.394H729.599V126.444ZM729.599 153.628H732.162C734.984 153.628 736.878 152.923 737.844 151.511C738.809 150.1 739.292 147.315 739.292 143.156C739.292 139.368 738.735 136.731 737.621 135.246C736.581 133.686 734.724 132.906 732.05 132.906C731.828 132.906 731.53 132.906 731.159 132.906C730.788 132.906 730.268 132.943 729.599 133.018V153.628ZM756.091 153.628H759.879V137.474C759.879 135.988 759.656 134.874 759.211 134.132C758.839 133.315 758.022 132.535 756.76 131.792C757.948 130.975 758.542 130.084 758.542 129.118C758.542 128.376 758.357 127.521 757.985 126.556L752.08 107.394H748.293V92.9104H748.85C749.889 92.9104 750.781 93.0218 751.523 93.2446C752.34 93.3931 753.269 93.7274 754.309 94.2473C755.2 93.8016 756.128 93.4674 757.094 93.2446C758.134 93.0218 759.062 92.9104 759.879 92.9104H760.659V107.394H757.762L762.776 123.771L767.121 107.394H764.224V92.9104C765.487 92.9104 766.489 93.0218 767.232 93.2446C768.049 93.4674 769.052 93.9873 770.24 94.8043C771.354 94.1359 772.357 93.6902 773.248 93.4674C774.139 93.1703 775.216 92.9846 776.479 92.9104V107.394H773.025L767.566 125.999C767.195 127.039 766.972 127.781 766.898 128.227C766.824 128.598 766.786 128.858 766.786 129.007C766.786 129.824 767.343 130.752 768.458 131.792C767.121 132.386 766.229 133.055 765.784 133.797C765.412 134.54 765.227 135.803 765.227 137.585V153.628H769.015V168.78C767.603 168.706 766.452 168.483 765.561 168.111C764.67 167.814 763.593 167.22 762.33 166.329C760.845 167.294 759.693 167.926 758.876 168.223C758.059 168.52 757.131 168.706 756.091 168.78V153.628ZM796.962 140.482H801.864V147.167C801.864 150.286 802.198 152.477 802.866 153.74C803.535 154.928 804.723 155.522 806.432 155.522C809.477 155.522 810.999 152.811 810.999 147.389C810.999 145.458 810.702 143.601 810.108 141.819C809.588 139.962 808.66 137.845 807.323 135.469C806.729 134.354 805.986 133.5 805.095 132.906C804.203 132.238 803.312 131.941 802.421 132.015H801.864C802.161 131.421 802.347 130.975 802.421 130.678C802.495 130.307 802.532 129.972 802.532 129.675C802.532 128.933 802.124 127.93 801.307 126.667C800.415 125.256 799.673 123.919 799.079 122.657C798.484 121.394 798.002 120.02 797.63 118.534C797.333 117.049 797.11 115.415 796.962 113.632C796.813 111.776 796.739 109.585 796.739 107.059C796.739 104.237 796.888 102.046 797.185 100.486C797.556 98.8522 798.187 97.4038 799.079 96.1412C799.821 95.1014 800.75 94.2473 801.864 93.5788C803.052 92.9104 804.278 92.5761 805.54 92.5761C806.432 92.5761 807.286 92.7618 808.103 93.1332C808.92 93.4303 809.959 94.0987 811.222 95.1385C812.039 94.173 812.745 93.5417 813.339 93.2446C814.007 92.8732 814.75 92.6504 815.567 92.5761V122.657H810.331V114.189C810.331 111.664 810.034 109.882 809.44 108.842C808.845 107.728 807.806 107.171 806.32 107.171C805.132 107.171 804.166 107.616 803.424 108.508C802.755 109.325 802.421 110.439 802.421 111.85C802.421 113.855 802.644 115.712 803.089 117.42C803.535 119.054 804.352 121.023 805.54 123.325C806.506 125.182 807.36 126.407 808.103 127.001C808.845 127.596 809.885 127.893 811.222 127.893C810.776 128.635 810.554 129.304 810.554 129.898C810.554 130.195 810.554 130.455 810.554 130.678C810.628 130.827 810.776 131.124 810.999 131.569C811.222 132.015 811.556 132.646 812.002 133.463C812.522 134.28 813.227 135.394 814.119 136.805C815.307 138.811 816.198 141.113 816.793 143.713C817.387 146.312 817.684 149.358 817.684 152.848C817.684 158.79 816.978 162.987 815.567 165.438C814.156 167.889 811.742 169.114 808.325 169.114C806.84 169.114 805.577 168.891 804.538 168.446C803.572 168 802.681 167.257 801.864 166.217C800.898 167.332 800.081 168.074 799.413 168.446C798.819 168.817 798.002 169.04 796.962 169.114V140.482ZM826.553 153.628H830.787V136.583C830.787 135.097 830.638 133.983 830.341 133.24C830.044 132.498 829.45 131.718 828.558 130.901C829.524 130.232 830.118 129.638 830.341 129.118C830.638 128.598 830.787 127.707 830.787 126.444V106.168C827.222 106.391 825.439 110.921 825.439 119.76V121.765H821.317V92.9104C822.431 93.0589 823.322 93.2817 823.991 93.5788C824.659 93.8016 825.402 94.2844 826.219 95.0271C827.556 94.2101 828.744 93.6531 829.784 93.356C830.898 93.0589 832.049 92.9104 833.238 92.9104C835.763 92.9104 838.214 93.6159 840.591 95.0271C841.556 94.2844 842.336 93.8016 842.93 93.5788C843.599 93.2817 844.453 93.0589 845.493 92.9104V121.765H841.482V119.76C841.482 110.921 839.699 106.391 836.134 106.168V126.444C836.134 127.707 836.246 128.598 836.468 129.118C836.766 129.638 837.36 130.232 838.251 130.901C837.434 131.718 836.877 132.498 836.58 133.24C836.283 133.983 836.134 135.097 836.134 136.583V153.628H840.256V168.78C838.994 168.631 837.954 168.446 837.137 168.223C836.32 168 835.169 167.48 833.683 166.663C833.015 167.109 832.421 167.443 831.901 167.666C831.381 167.889 830.861 168.074 830.341 168.223C829.821 168.371 829.264 168.483 828.67 168.557C828.15 168.631 827.444 168.706 826.553 168.78V153.628ZM849.428 138.031C849.428 136.694 849.391 135.58 849.317 134.689C849.243 133.797 849.131 133.092 848.983 132.572C848.834 131.978 848.574 131.532 848.203 131.235C847.906 130.864 847.497 130.492 846.977 130.121C847.497 129.675 847.906 129.267 848.203 128.895C848.574 128.524 848.834 128.078 848.983 127.559C849.206 127.039 849.317 126.37 849.317 125.553C849.391 124.736 849.428 123.696 849.428 122.434V106.948C849.428 101.749 850.208 98.0723 851.768 95.9184C853.328 93.6902 856.002 92.5761 859.789 92.5761C863.577 92.5761 866.214 93.6531 867.699 95.807C869.259 97.9609 870.039 101.637 870.039 106.836V122.879C870.039 124.216 870.039 125.256 870.039 125.999C870.113 126.742 870.225 127.373 870.373 127.893C870.522 128.338 870.745 128.71 871.042 129.007C871.339 129.304 871.747 129.675 872.267 130.121C871.376 130.938 870.782 131.681 870.485 132.349C870.188 133.018 870.039 133.983 870.039 135.246V153.294C870.039 156.711 869.816 159.31 869.371 161.093C868.999 162.875 868.294 164.398 867.254 165.66C866.437 166.775 865.323 167.629 863.912 168.223C862.5 168.817 860.978 169.114 859.344 169.114C857.636 169.114 856.039 168.743 854.553 168C853.068 167.332 851.954 166.403 851.211 165.215C850.542 164.101 850.06 162.727 849.763 161.093C849.54 159.384 849.428 156.971 849.428 153.851V138.031ZM855.11 124.551C855.11 126.036 855.222 127.15 855.444 127.893C855.742 128.635 856.299 129.378 857.116 130.121C856.299 130.789 855.742 131.495 855.444 132.238C855.222 132.906 855.11 134.095 855.11 135.803V148.392C855.11 150.1 855.519 151.474 856.336 152.514C857.153 153.48 858.267 153.962 859.678 153.962C861.163 153.962 862.315 153.405 863.132 152.291C863.949 151.177 864.357 149.618 864.357 147.612V135.246C864.357 133.76 864.209 132.683 863.912 132.015C863.614 131.346 863.02 130.715 862.129 130.121C863.095 129.378 863.689 128.673 863.912 128.004C864.209 127.261 864.357 125.925 864.357 123.993V112.407C864.357 108.248 862.835 106.168 859.789 106.168C858.898 106.168 858.081 106.391 857.338 106.836C856.596 107.208 856.039 107.728 855.667 108.396C855.444 108.842 855.296 109.325 855.222 109.845C855.147 110.364 855.11 111.293 855.11 112.63V124.551ZM874.845 92.9104C876.034 93.0589 876.925 93.2817 877.519 93.5788C878.188 93.8759 878.893 94.3958 879.636 95.1385C880.899 94.3215 882.087 93.7645 883.201 93.4674C884.315 93.096 885.726 92.9104 887.435 92.9104C889.96 92.9104 891.965 93.356 893.451 94.2473C895.01 95.0643 896.199 96.4383 897.016 98.3694C897.239 98.9636 897.424 99.5578 897.573 100.152C897.796 100.672 897.944 101.34 898.018 102.157C898.093 102.974 898.13 103.977 898.13 105.165C898.204 106.279 898.241 107.691 898.241 109.399C898.315 110.81 898.464 111.813 898.687 112.407C898.984 113.001 899.615 113.632 900.581 114.301C899.764 114.969 899.207 115.638 898.91 116.306C898.613 116.9 898.464 117.903 898.464 119.314C898.538 122.582 898.278 124.922 897.684 126.333C897.164 127.744 896.124 128.784 894.565 129.452C897.387 131.086 898.798 133.575 898.798 136.917V153.628H902.586V168.668H900.915C899.801 168.668 898.761 168.483 897.796 168.111C896.83 167.74 896.05 167.22 895.456 166.552C895.01 166.032 894.639 165.549 894.342 165.103C894.119 164.658 893.933 164.064 893.785 163.321C893.636 162.578 893.525 161.613 893.451 160.424C893.451 159.236 893.451 157.676 893.451 155.745V140.259C893.451 137.288 893.005 135.32 892.114 134.354C891.222 133.315 889.477 132.795 886.877 132.795H883.981V153.628H887.769V168.78C886.358 168.78 885.243 168.631 884.427 168.334C883.61 168.037 882.681 167.406 881.641 166.44C880.75 167.257 879.822 167.814 878.856 168.111C877.965 168.483 876.628 168.706 874.845 168.78V153.628H878.633V136.805C878.633 135.543 878.41 134.54 877.965 133.797C877.593 132.98 876.888 132.201 875.848 131.458C876.962 130.641 877.705 129.824 878.076 129.007C878.448 128.116 878.633 126.816 878.633 125.108V107.394H874.845V92.9104ZM883.981 126.333C885.986 126.333 887.546 126.259 888.66 126.11C889.848 125.887 890.74 125.442 891.334 124.773C892.002 124.105 892.411 123.102 892.559 121.765C892.708 120.428 892.782 118.646 892.782 116.418C892.782 113.447 892.596 111.367 892.225 110.179C891.854 108.99 891.111 108.211 889.997 107.839C889.774 107.765 889.514 107.691 889.217 107.616C888.994 107.542 888.697 107.505 888.326 107.505C887.954 107.431 887.397 107.394 886.655 107.394C885.986 107.394 885.095 107.394 883.981 107.394V126.333ZM904.874 153.628H908.661V134.354C908.661 133.092 908.513 132.126 908.216 131.458C907.919 130.789 907.287 130.121 906.322 129.452C907.882 127.893 908.661 126.184 908.661 124.328V107.394H904.874V92.9104H905.765C906.805 92.9104 907.696 93.0589 908.439 93.356C909.256 93.6531 910.258 94.2101 911.447 95.0271C912.486 94.2101 913.378 93.6531 914.12 93.356C914.863 93.0589 915.866 92.9104 917.129 92.9104L924.147 144.158L931.612 92.9104C933.023 92.9846 934.137 93.1703 934.954 93.4674C935.845 93.6902 936.885 94.2101 938.073 95.0271C939.187 94.2101 940.079 93.6902 940.747 93.4674C941.416 93.1703 942.27 92.9846 943.31 92.9104V107.394H939.522V124.662C939.522 126.147 939.67 127.261 939.967 128.004C940.264 128.673 940.896 129.341 941.861 130.01C940.821 130.975 940.153 131.829 939.856 132.572C939.633 133.315 939.522 134.429 939.522 135.914V153.628H943.31V168.78C941.75 168.78 940.487 168.631 939.522 168.334C938.63 168.111 937.665 167.592 936.625 166.775C935.585 167.517 934.657 168 933.84 168.223C933.023 168.52 931.946 168.706 930.609 168.78V153.628H934.285V108.73L925.818 168.78H921.696L914.009 108.73V153.628H917.797V168.78C916.163 168.557 914.937 168.297 914.12 168C913.303 167.777 912.412 167.369 911.447 166.775C910.184 167.517 909.144 168 908.327 168.223C907.51 168.446 906.359 168.631 904.874 168.78V153.628Z" fill="#1E1E1E"/>
</svg>
