<svg width="1437" height="176" viewBox="0 0 1437 176" fill="none" xmlns="http://www.w3.org/2000/svg">
<g clip-path="url(#clip0_32_36)">
<path d="M1519.33 -6.29803e-05L1389.1 26.3999C1341.2 35.1999 1245.4 52.7999 1149.6 67.4849C1053.8 81.95 957.999 94.05 862.199 85.085C766.399 76.45 670.599 46.7499 574.799 38.1149C478.999 29.1499 383.199 41.2499 287.398 38.1149C191.598 35.1999 95.7982 17.5999 47.8981 8.79994L-0.00195411 -6.29803e-05H47.8981C95.7982 -6.29803e-05 191.598 -6.29803e-05 287.398 -6.29803e-05C383.199 -6.29803e-05 478.999 -6.29803e-05 574.799 -6.29803e-05C670.599 -6.29803e-05 766.399 -6.29803e-05 862.199 -6.29803e-05C957.999 -6.29803e-05 1053.8 -6.29803e-05 1149.6 -6.29803e-05C1245.4 -6.29803e-05 1341.2 -6.29803e-05 1389.1 -6.29803e-05H1437L1519.33 -6.29803e-05Z" fill="white"/>
<path d="M1519.33 0.000184429L1389.1 26.4002C1341.2 35.2002 1245.4 52.8002 1149.6 67.4852C1053.8 81.9502 957.999 94.0502 862.199 85.0852C766.399 76.4502 670.599 46.7502 574.799 38.1152C478.999 29.1502 383.198 41.2502 287.398 38.1152C191.598 35.2002 95.7982 17.6002 47.8981 8.80019L-0.00192211 0.000184429H47.8981C95.7982 0.000184429 191.598 0.000184429 287.398 0.000184429C383.198 0.000184429 478.999 0.000184429 574.799 0.000184429C670.599 0.000184429 766.399 0.000184429 862.199 0.000184429C957.999 0.000184429 1053.8 0.000184429 1149.6 0.000184429C1245.4 0.000184429 1341.2 0.000184429 1389.1 0.000184429H1437L1519.33 0.000184429Z" fill="white"/>
</g>
<defs>
<clipPath id="clip0_32_36">
<rect width="1437" height="176" fill="white" transform="matrix(-1 0 0 -1 1437 176)"/>
</clipPath>
</defs>
</svg>
