<svg width="731" height="48" viewBox="0 0 731 48" fill="none" xmlns="http://www.w3.org/2000/svg">
<path d="M731 -1.9444e-06L668.343 14.3741C645.297 19.1655 599.204 28.7482 553.111 36.7438C507.019 44.6196 460.926 51.2078 414.834 46.3266C368.741 41.625 322.648 25.4542 276.556 20.7526C230.463 15.8714 184.37 22.4595 138.278 20.7526C92.1852 19.1655 46.0926 9.58274 23.0463 4.79137L7.58469e-06 -1.9444e-06L23.0463 -1.9444e-06C46.0926 -1.9444e-06 92.1852 -1.9444e-06 138.278 -1.9444e-06C184.37 -1.9444e-06 230.463 -1.9444e-06 276.556 -1.9444e-06C322.648 -1.9444e-06 368.741 -1.9444e-06 414.834 -1.9444e-06C460.926 -1.9444e-06 507.019 -1.9444e-06 553.111 -1.9444e-06C599.204 -1.9444e-06 645.297 -1.9444e-06 668.343 -1.9444e-06H691.389L731 -1.9444e-06Z" fill="white"/>
</svg>
