<svg width="2428" height="255" viewBox="0 0 2428 255" fill="none" xmlns="http://www.w3.org/2000/svg">
<g clip-path="url(#clip0_25_47)">
<path d="M2567.1 0.00010705L2347.07 38.2501C2266.13 51.0001 2104.27 76.5001 1942.4 97.7767C1780.53 118.734 1618.67 136.266 1456.8 123.277C1294.93 110.766 1133.07 67.7345 971.2 55.2235C809.333 42.2345 647.466 59.7657 485.6 55.2235C323.733 51.0001 161.866 25.5001 80.933 12.7501L-0.000316024 0.00010705L80.933 0.00010705C161.866 0.00010705 323.733 0.00010705 485.6 0.00010705C647.466 0.00010705 809.333 0.00010705 971.2 0.00010705C1133.07 0.00010705 1294.93 0.00010705 1456.8 0.00010705C1618.67 0.00010705 1780.53 0.00010705 1942.4 0.00010705C2104.27 0.00010705 2266.13 0.00010705 2347.07 0.00010705L2428 0.00010705L2567.1 0.00010705Z" fill="white"/>
</g>
<defs>
<clipPath id="clip0_25_47">
<rect width="2428" height="255" fill="white" transform="matrix(-1 0 0 -1 2428 255)"/>
</clipPath>
</defs>
</svg>
